<?xml version="1.0" encoding="utf-8"?>
<!-- Generator: Adobe Illustrator 17.0.0, SVG Export Plug-In . SVG Version: 6.00 Build 0)  -->
<!DOCTYPE svg PUBLIC "-//W3C//DTD SVG 1.1//EN" "http://www.w3.org/Graphics/SVG/1.1/DTD/svg11.dtd">
<svg version="1.1" id="Layer_1" xmlns="http://www.w3.org/2000/svg" xmlns:xlink="http://www.w3.org/1999/xlink" x="0px" y="0px"
	 width="595.28px" height="841.89px" viewBox="0 0 595.28 841.89" enable-background="new 0 0 595.28 841.89" xml:space="preserve">
<g>
	<g>
		<path fill="#FFFFFF" d="M544.237,610.283c0,60.619,0,121.238,0,181.904c-164.166,0-328.332,0-492.498,0
			c-0.002-0.696-0.007-1.391-0.007-2.087c-0.031-147.732-0.056-295.464-0.094-443.196c-0.013-51.929-0.046-103.859-0.09-155.788
			c-0.018-21.038-0.084-42.077-0.136-63.115c-0.046-18.546-0.102-37.092-0.155-55.638c-0.002-0.579-0.001-1.16-0.036-1.738
			c-0.017-0.282-0.116-0.559-0.177-0.838c0-12.057,0-24.115,0-36.172c1.33-0.023,2.66-0.066,3.99-0.066
			c84.588-0.034,169.176-0.065,253.765-0.096c2.665-0.001,5.33-0.002,7.995-0.008c0.577-0.001,1.162,0.054,1.716-0.177
			c75.243,0,150.486,0,225.728,0c0,6.145,0,12.289,0,18.434c-0.078,0.269-0.181,0.534-0.227,0.808
			c-0.048,0.284-0.048,0.577-0.055,0.867c-0.025,1.101-0.062,2.202-0.062,3.303c0,18.837,0.003,37.674,0.009,56.511
			c0.051,164.432,0.103,328.864,0.155,493.296c0,0.638-0.023,1.276,0.007,1.912C544.094,609.027,544.177,609.654,544.237,610.283z
			 M276.844,442.735c0.437-0.265,0.884-0.53,1.326-0.805c1.537-0.957,2.906-2.117,4.066-3.505c0.518-0.62,0.999-1.282,1.422-1.971
			c0.738-1.201,1.201-2.504,1.225-3.936c0.024-1.448,0.099-2.898,0.075-4.345c-0.098-5.854-0.364-11.703-0.622-17.551
			c-0.005-0.116-0.013-0.231-0.02-0.347c-0.175-2.951-0.355-5.901-0.524-8.852c-0.165-2.893-0.319-5.787-0.478-8.681
			c-0.016-0.289-0.04-0.578-0.06-0.867c-0.184-2.718-0.371-5.435-0.55-8.153c-0.16-2.429-0.305-4.859-0.466-7.288
			c-0.115-1.735-0.24-3.469-0.372-5.203c-0.171-2.255-0.356-4.51-0.529-6.765c-0.16-2.08-0.304-4.162-0.47-6.241
			c-0.125-1.56-0.272-3.118-0.412-4.676c-0.177-1.962-0.362-3.924-0.537-5.886c-0.16-1.789-0.306-3.58-0.467-5.369
			c-0.119-1.327-0.247-2.654-0.378-3.98c-0.172-1.73-0.355-3.458-0.525-5.188c-0.278-2.826-0.535-5.654-0.826-8.478
			c-0.315-3.055-0.658-6.107-0.993-9.159c-0.139-1.267-0.284-2.534-0.437-3.799c-0.292-2.416-0.59-4.831-0.887-7.246
			c-0.276-2.243-0.536-4.488-0.836-6.727c-0.392-2.928-0.808-5.854-1.229-8.778c-0.503-3.498-0.999-6.997-1.541-10.489
			c-0.498-3.205-1.059-6.401-1.58-9.603c-0.744-4.574-1.456-9.154-2.22-13.724c-0.86-5.142-1.76-10.277-2.648-15.414
			c-1.026-5.937-2.188-11.847-3.476-17.733c-2.12-9.686-4.773-19.22-7.968-28.607c-2.708-7.955-5.744-15.785-8.976-23.539
			c-1.403-3.368-2.812-6.737-4.329-10.055c-2.625-5.743-5.336-11.447-8.011-17.167c-1.939-4.146-3.878-8.291-5.823-12.434
			c-0.192-0.41-0.306-0.876-0.681-1.148c-0.145-0.031-0.259-0.08-0.369-0.075c-1.914,0.095-3.81,0.338-5.671,0.791
			c-0.67,0.163-1.326,0.425-1.95,0.723c-1.086,0.518-1.88,1.355-2.326,2.477c-0.234,0.589-0.425,1.202-0.565,1.82
			c-0.41,1.815-0.518,3.672-0.641,5.52c-0.197,2.949-0.351,5.901-0.484,8.854c-0.196,4.343-0.398,8.686-0.522,13.031
			c-0.157,5.504-0.293,11.01-0.344,16.517c-0.194,21.1-0.264,42.199,0.151,63.298c0.165,8.404,0.338,16.806,0.737,25.203
			c0.159,3.359,0.356,6.713,0.753,10.053c0.157,1.326,0.393,2.637,0.747,3.923c0.169,0.612,0.399,1.211,0.651,1.794
			c0.743,1.726,2.072,2.762,3.894,3.142c0.848,0.177,1.714,0.298,2.578,0.368c1.906,0.154,3.818,0.238,5.725,0.392
			c1.964,0.158,3.916,0.432,5.859,0.76c0.113,0.019,0.221,0.068,0.333,0.098c0.182,0.049,0.431,0.323,0.443,0.491
			c0.008,0.116,0.028,0.231,0.027,0.347c-0.007,2.84-0.017,5.681-0.026,8.521c0,0.058-0.005,0.116-0.009,0.174
			c-0.026,0.429-0.224,0.664-0.613,0.693c-0.52,0.039-1.041,0.071-1.562,0.086c-3.885,0.112-7.766-0.039-11.646-0.222
			c-1.274-0.06-2.546-0.155-3.821-0.186c-7.07-0.176-14.141-0.324-21.213-0.259c-3.652,0.034-7.303,0.089-10.955,0.139
			c-5.39,0.074-10.781,0.145-16.171,0.229c-6.665,0.103-13.33,0.239-19.996,0.319c-3.071,0.037-6.144-0.016-9.216-0.044
			c-3.944-0.037-7.874-0.283-11.8-0.676c-3.233-0.324-6.44-0.794-9.612-1.489c-3.573-0.784-7.056-1.857-10.383-3.4
			c-2.855-1.324-5.513-2.956-7.903-5.011c-4.279-3.678-7.247-8.246-9.126-13.538c-1.585-4.466-2.249-9.1-2.409-13.815
			c-0.079-2.318,0.011-4.632,0.221-6.947c0.277-3.067,0.751-6.096,1.508-9.076c1.836-7.234,4.963-13.836,9.782-19.578
			c1.154-1.375,2.374-2.699,3.629-3.983c1.337-1.367,2.747-2.662,4.132-3.98c2.109-2.007,4.441-3.72,6.938-5.209
			c7.686-4.58,16.013-7.232,24.879-8.267c3.579-0.418,7.168-0.488,10.764-0.371c0.695,0.023,1.39,0.061,2.083,0.123
			c2.425,0.218,4.836,0.552,7.236,0.956c0.797,0.134,1.586,0.332,2.368,0.541c0.824,0.22,1.435,0.743,1.848,1.484
			c0.253,0.455,0.478,0.927,0.703,1.397c0.851,1.776,1.697,3.554,2.546,5.331c0.05,0.104,0.11,0.204,0.162,0.307
			c0.138,0.279,0.149,0.559-0.038,0.818c-0.476,0.657-0.953,1.313-1.443,1.959c-0.172,0.226-0.386,0.42-0.57,0.617
			c-0.8,0.056-1.551-0.001-2.299-0.089c-1.957-0.23-3.915-0.446-5.866-0.718c-2.497-0.347-4.978-0.229-7.44,0.232
			c-4.586,0.859-8.704,2.761-12.349,5.678c-1.318,1.055-2.509,2.234-3.573,3.545c-2.512,3.095-4.365,6.545-5.615,10.326
			c-1.322,3.997-1.884,8.121-2.015,12.307c-0.131,4.184,0.201,8.34,0.976,12.456c0.57,3.03,1.471,5.959,2.796,8.749
			c3.152,6.64,8.143,11.314,14.986,14.008c3.482,1.371,7.105,2.122,10.825,2.361c3.3,0.212,6.6,0.159,9.895-0.235
			c2.767-0.33,5.5-0.813,8.208-1.456c0.224-0.053,0.47-0.081,0.66-0.196c0.184-0.112,0.367-0.297,0.447-0.492
			c0.108-0.261,0.127-0.561,0.167-0.847c0.353-2.529,0.493-5.078,0.625-7.622c0.187-3.588,0.316-7.181,0.383-10.774
			c0.12-6.433,0.193-12.867,0.252-19.301c0.094-10.144-0.032-20.288-0.092-30.432c-0.082-14.028-0.338-28.054-0.526-42.08
			c-0.013-0.985-0.041-1.97-0.061-2.956c-0.177-8.867-0.502-17.73-0.558-26.599c-0.011-1.685-0.137-3.359-0.377-5.024
			c-0.207-1.438-0.555-2.84-1.224-4.147c-0.755-1.476-1.911-2.453-3.523-2.87c-0.449-0.116-0.898-0.237-1.353-0.321
			c-1.767-0.328-3.547-0.576-5.335-0.742c-2.019-0.187-4.043-0.327-6.067-0.464c-1.85-0.125-3.703-0.216-5.554-0.33
			c-0.461-0.029-0.921-0.084-1.379-0.141c-0.203-0.025-0.418-0.273-0.438-0.481c-0.022-0.23-0.048-0.461-0.05-0.692
			c-0.024-2.724-0.045-5.449-0.063-8.173c-0.001-0.23,0.026-0.461,0.045-0.692c0.017-0.211,0.242-0.442,0.453-0.445
			c0.694-0.009,1.389-0.027,2.083-0.006c5.388,0.161,10.776,0.347,16.165,0.492c5.679,0.152,11.358,0.31,17.037,0.389
			c8.521,0.119,17.042,0.152,25.558-0.256c2.605-0.125,5.209-0.269,7.813-0.41c0.171-0.009,0.35-0.041,0.505-0.109
			c0.085-0.038,0.184-0.177,0.178-0.263c-0.017-0.225-0.05-0.464-0.144-0.666c-0.466-0.997-0.915-2.005-1.44-2.97
			c-1.358-2.493-2.718-4.986-4.14-7.443c-4.239-7.323-8.699-14.513-13.2-21.677c-1.88-2.993-3.807-5.959-5.799-8.878
			c-3.103-4.548-6.268-9.054-9.433-13.559c-1.099-1.564-2.261-3.085-3.426-4.602c-0.599-0.781-1.25-1.523-1.909-2.256
			c-0.386-0.429-0.823-0.815-1.254-1.201c-0.402-0.361-0.881-0.547-1.428-0.543c-0.58,0.004-1.159,0.001-1.739,0.002
			c-18.781,0.064-37.563,0.135-56.344,0.19c-15.071,0.044-30.143,0.07-45.214,0.106c-0.637,0.002-1.275,0.015-1.912,0.034
			c-0.279,0.008-0.541,0.274-0.549,0.572c-0.023,0.926-0.043,1.853-0.042,2.78c0.027,67.88,0.065,135.76,0.082,203.639
			c0.041,161.033,0.072,322.067,0.107,483.1c0.002,8.695,0.003,17.39,0.008,26.085c0,0.578,0.03,1.156,0.055,1.734
			c0.009,0.204,0.247,0.429,0.464,0.434c0.81,0.021,1.621,0.047,2.431,0.047c112.92,0.003,225.841,0.003,338.761,0.003
			c35.998,0,71.996,0,107.993,0c0.638,0,1.275,0.001,1.913-0.014c0.54-0.013,0.776-0.198,0.843-0.675
			c0.122-0.86,0.274-1.72,0.328-2.586c0.129-2.082,0.255-4.167,0.3-6.253c0.123-5.796,0.058-11.592-0.05-17.389
			c-0.124-6.665-0.302-13.33-0.302-19.995c-0.016-222.827-0.013-445.653-0.013-668.48c0-0.696,0.003-1.391-0.003-2.087
			c-0.002-0.231-0.021-0.462-0.041-0.693c-0.024-0.275-0.293-0.538-0.583-0.545c-0.753-0.018-1.506-0.03-2.26-0.03
			c-34.607,0.022-69.213,0.046-103.82,0.07c-0.406,0-0.813-0.016-1.217,0.01c-0.34,0.021-0.678,0.092-1.024,0.142
			c-1.508,2.525-3.339,4.775-5.074,7.094c-1.18,1.577-2.345,3.168-3.47,4.785c-7.017,10.089-13.712,20.389-20.19,30.831
			c-4.155,6.698-8.198,13.462-12,20.368c-2.18,3.96-4.299,7.952-6.131,12.087c-0.656,1.482-1.254,2.991-1.856,4.496
			c-0.147,0.368-0.212,0.77-0.304,1.159c-0.009,0.039,0.047,0.111,0.091,0.141c0.041,0.028,0.112,0.04,0.16,0.026
			c0.572-0.169,0.997-0.572,1.429-0.948c1.18-1.028,2.343-2.075,3.507-3.122c4.516-4.064,9.551-7.324,15.075-9.852
			c5.738-2.626,11.771-4.191,17.981-5.153c2.176-0.337,4.361-0.6,6.555-0.806c2.771-0.26,5.544-0.471,8.325-0.557
			c4.23-0.13,8.461-0.133,12.693-0.101c6.783,0.051,13.557,0.414,20.338,0.556c2.839,0.06,5.679,0.148,8.518,0.165
			c6.146,0.037,12.285-0.281,18.427-0.422c3.708-0.085,7.416-0.198,11.125-0.295c0.347-0.009,0.695,0.006,1.042,0.021
			c0.31,0.013,0.53,0.231,0.53,0.559c0.001,1.738-0.007,3.475-0.021,5.213c-0.001,0.108-0.074,0.216-0.14,0.396
			c-0.453,0.248-0.952,0.535-1.462,0.8c-1.544,0.801-3.067,1.637-4.525,2.587c-1.022,0.666-1.993,1.396-2.849,2.273
			c-1.121,1.149-1.858,2.501-2.21,4.069c-0.191,0.851-0.325,1.706-0.367,2.578c-0.186,3.879-0.44,7.755-0.558,11.636
			c-0.193,6.373-0.312,12.748-0.438,19.123c-0.056,2.84-0.056,5.68-0.074,8.521c-0.145,22.723-0.18,45.446,0.076,68.169
			c0.028,2.492,0.074,4.985,0.149,7.476c0.168,5.62,0.346,11.24,0.548,16.859c0.089,2.49,0.223,4.98,0.384,7.466
			c0.067,1.039,0.213,2.077,0.402,3.102c0.199,1.081,0.468,2.147,0.907,3.167c0.746,1.731,1.964,2.978,3.682,3.751
			c1.065,0.479,2.178,0.785,3.32,0.995c2.055,0.378,4.129,0.591,6.215,0.692c2.258,0.109,4.516,0.214,6.774,0.324
			c0.173,0.008,0.36,0.005,0.512,0.072c0.142,0.062,0.324,0.194,0.35,0.324c0.068,0.337,0.08,0.689,0.081,1.035
			c0.006,2.551,0.003,5.101,0.002,7.652c0,0.232-0.005,0.464-0.015,0.695c-0.019,0.424-0.234,0.663-0.62,0.667
			c-0.521,0.006-1.043,0.006-1.565-0.008c-3.129-0.086-6.257-0.2-9.387-0.261c-5.796-0.114-11.591-0.219-17.388-0.289
			c-10.955-0.132-21.912-0.155-32.867,0.007c-6.085,0.09-12.17,0.207-18.253,0.456c-5.849,0.239-11.703,0.348-17.556,0.513
			c-1.159,0.033-2.318,0.061-3.477,0.099c-7.65,0.247-15.301,0.282-22.952,0.109c-2.779-0.063-5.561-0.203-8.318-0.617
			c-1.427-0.214-1.649-0.383-2.079-1.708c-0.089-0.274-0.143-0.56-0.209-0.842c-0.412-1.778-0.334-3.57-0.141-5.362
			c0.254-2.363,0.69-4.698,1.107-7.037c0.305-1.71,0.577-3.432,0.737-5.16c0.285-3.058,0.518-6.122,0.691-9.188
			c0.189-3.356,0.286-6.717,0.425-10.076c0.017-0.405,0.041-0.809,0.07-1.213c0.015-0.207,0.245-0.407,0.471-0.425
			c0.173-0.014,0.346-0.037,0.519-0.034c2.956,0.046,5.912,0.091,8.868,0.149c0.284,0.005,0.57,0.072,0.847,0.142
			c0.094,0.024,0.199,0.131,0.236,0.225c0.063,0.158,0.098,0.334,0.107,0.505c0.126,2.199,0.252,4.398,0.366,6.597
			c0.158,3.069,0.415,6.129,0.764,9.181c0.105,0.919,0.308,1.827,0.484,2.736c0.185,0.955,0.715,1.708,1.477,2.285
			c0.46,0.348,0.947,0.677,1.464,0.929c0.727,0.354,1.482,0.659,2.244,0.93c1.807,0.644,3.684,1.026,5.572,1.326
			c3.953,0.629,7.936,0.974,11.936,1.11c1.159,0.039,2.318,0.065,3.476,0.109c3.651,0.139,7.302,0.137,10.953,0.018
			c3.939-0.128,7.882-0.142,11.816-0.431c2.37-0.174,4.744-0.286,7.116-0.427c0.173-0.01,0.345-0.035,0.517-0.058
			c0.278-0.037,0.53-0.28,0.565-0.574c0.232-1.956,0.508-3.909,0.674-5.871c0.269-3.176,0.519-6.355,0.676-9.538
			c0.193-3.936,0.366-7.877,0.399-11.817c0.082-9.68,0.079-19.361,0.109-29.041c0.001-0.29-0.003-0.58-0.014-0.869
			c-0.016-0.42-0.223-0.667-0.608-0.689c-1.446-0.084-2.893-0.196-4.34-0.226c-2.26-0.046-4.521-0.042-6.782-0.044
			c-5.217-0.005-10.434,0.011-15.651-0.004c-4.176-0.012-8.339-0.26-12.498-0.649c-3.408-0.32-6.789-0.801-10.141-1.483
			c-4.612-0.938-9.101-2.281-13.404-4.203c-10.026-4.479-17.688-11.541-23.019-21.133c-2.077-3.737-3.377-7.745-4.003-11.967
			c-0.443-2.984-0.644-5.992-0.688-9.008c-0.019-1.275-0.012-2.551-0.024-3.826c-0.003-0.288-0.031-0.576-0.056-0.863
			c-0.004-0.045-0.047-0.096-0.086-0.125c-0.115-0.085-0.229-0.075-0.306,0.037c-0.195,0.285-0.417,0.558-0.567,0.866
			c-0.733,1.511-1.487,3.014-2.16,4.552c-1.719,3.929-3.196,7.953-4.649,11.987c-2.886,8.014-5.508,16.111-7.694,24.347
			c-1.575,5.935-3.019,11.902-4.298,17.908c-1.073,5.042-2.104,10.093-3.076,15.156c-0.808,4.209-1.528,8.436-2.244,12.662
			c-0.794,4.683-1.564,9.371-2.297,14.064c-0.554,3.549-1.039,7.108-1.543,10.665c-0.536,3.786-1.085,7.57-1.581,11.362
			c-0.541,4.136-1.029,8.279-1.534,12.42c-0.422,3.451-0.857,6.9-1.248,10.354c-0.417,3.685-0.788,7.375-1.179,11.062
			c-0.134,1.268-0.268,2.535-0.401,3.803c-0.296,2.824-0.606,5.646-0.881,8.472c-0.292,2.999-0.55,6.001-0.826,9.002
			c-0.132,1.443-0.271,2.885-0.405,4.327c-0.177,1.904-0.362,3.807-0.525,5.713c-0.169,1.963-0.313,3.928-0.473,5.892
			c-0.127,1.559-0.265,3.118-0.393,4.677c-0.185,2.252-0.375,4.505-0.545,6.758c-0.166,2.196-0.309,4.394-0.465,6.59
			c-0.173,2.428-0.371,4.854-0.519,7.284c-0.181,2.95-0.322,5.903-0.48,8.855c-0.019,0.347-0.043,0.694-0.061,1.042
			c-0.186,3.647-0.385,7.293-0.554,10.94c-0.171,3.706-0.265,7.415-0.48,11.118c-0.212,3.648-0.267,7.298-0.312,10.95
			c-0.01,0.811,0.023,1.623,0.005,2.434c-0.043,1.947,0.626,3.63,1.846,5.118c0.441,0.538,0.884,1.074,1.324,1.612
			c1.075,1.312,2.268,2.48,3.849,3.183c0.706,0.314,1.013,0.896,1.094,1.647c0.194,1.791,0.232,3.585,0.179,5.383
			c-0.002,0.058-0.014,0.115-0.02,0.173c-0.018,0.156-0.307,0.444-0.471,0.456c-0.347,0.024-0.694,0.051-1.041,0.057
			c-1.97,0.038-3.941,0.069-5.912,0.107c-0.463,0.009-0.926,0.031-1.388,0.057c-0.23,0.013-0.419,0.2-0.479,0.427
			c-0.194,0.735-0.248,1.488-0.24,2.241c0.019,1.681,0.034,3.362,0.107,5.041c0.071,1.627,0.013,3.245-0.149,4.862
			c-0.3,3.011-1.679,5.255-4.566,6.433c-0.697,0.284-1.395,0.573-2.067,0.912c-0.774,0.391-1.522,0.834-2.275,1.265
			c-0.326,0.187-0.479,0.487-0.477,0.866c0.003,0.464-0.006,0.928,0.003,1.391c0.049,2.492,0.09,4.984,0.157,7.476
			c0.102,3.769,0.062,7.535-0.171,11.298c-0.047,0.754-0.114,1.502-0.302,2.236c-0.111,0.432-0.315,0.651-0.697,0.629
			c-3.239-0.186-2.772,0.478-2.817-2.76c-0.011-0.811-0.004-1.623-0.005-2.435c-0.007-5.507-0.021-11.014-0.012-16.521
			c0.001-0.828-0.099-1.613-0.534-2.401c-0.217-0.091-0.476-0.217-0.746-0.31c-1.322-0.452-2.576-1.051-3.764-1.777
			c-0.689-0.421-1.36-0.889-1.976-1.411c-1.043-0.884-1.72-2.017-2.078-3.344c-0.166-0.618-0.286-1.239-0.342-1.877
			c-0.137-1.561-0.175-3.123-0.128-4.69c0.062-2.086,0.096-4.172,0.132-6.259c0.006-0.345-0.035-0.691-0.066-1.036
			c-0.018-0.206-0.201-0.308-0.354-0.33c-0.399-0.057-0.806-0.083-1.21-0.084c-1.855-0.007-3.71,0.001-5.565,0
			c-0.464,0-0.927-0.003-1.391-0.02c-0.52-0.019-0.764-0.239-0.769-0.721c-0.019-1.913-0.029-3.825-0.034-5.738
			C276.735,443.101,276.802,442.933,276.844,442.735z M300.707,53.405c-22.869,0.032-42.572,0.055-62.274,0.091
			c-6.316,0.011-12.633,0.055-18.949,0.089c-0.52,0.003-1.04,0.04-1.559,0.071c-0.199,0.012-0.358,0.348-0.253,0.537
			c0.282,0.505,0.565,1.01,0.861,1.507c3.708,6.22,7.423,12.435,11.124,18.659c0.71,1.194,1.387,2.409,2.044,3.634
			c1.48,2.756,2.979,5.5,4.606,8.174c3.511,5.767,7.994,10.632,13.421,14.643c3.781,2.794,7.727,5.325,11.86,7.563
			c7.955,4.306,16.332,7.419,25.283,8.892c2.688,0.443,5.394,0.752,8.119,0.842c4.119,0.136,8.222-0.047,12.312-0.594
			c2.99-0.4,5.945-0.951,8.868-1.687c8.217-2.069,15.858-5.479,23.031-9.953c5.102-3.183,9.584-7.096,13.452-11.706
			c2.127-2.534,4.047-5.218,5.819-8.01c1.926-3.034,3.678-6.168,5.352-9.347c3.944-7.491,8.254-14.763,13.036-21.752
			c0.131-0.191,0.256-0.386,0.379-0.582c0.186-0.299,0.06-0.627-0.254-0.644c-0.463-0.025-0.926-0.048-1.389-0.055
			c-7.069-0.098-14.137-0.252-21.206-0.276C335.439,53.436,316.49,53.429,300.707,53.405z M443.468,166.355
			c-0.035-4.821-0.093-9.863-0.104-14.904c-0.015-6.954-0.234-13.907-0.085-20.861c0.007-0.345-0.018-0.697-0.082-1.035
			c-0.09-0.479-0.351-0.867-0.823-1.043c-0.487-0.181-0.983-0.349-1.488-0.466c-2.771-0.639-5.576-1.075-8.418-1.199
			c-1.736-0.076-3.476-0.082-5.214-0.052c-4.075,0.069-8.075,0.688-11.998,1.787c-3.138,0.878-6.131,2.103-8.924,3.799
			c-3.12,1.894-5.706,4.342-7.735,7.379c-1.259,1.885-2.328,3.871-3.225,5.95c-2.858,6.628-4.206,13.588-4.49,20.769
			c-0.103,2.606-0.021,5.21,0.249,7.812c0.294,2.833,0.783,5.623,1.551,8.359c1.218,4.334,3.117,8.347,5.806,11.972
			c2.896,3.903,6.569,6.825,11.027,8.768c2.509,1.094,5.118,1.852,7.799,2.358c3.479,0.657,6.995,1.027,10.535,1.062
			c3.36,0.034,6.722-0.006,10.082-0.06c1.447-0.023,2.892-0.161,4.338-0.255c0.407-0.027,0.651-0.253,0.688-0.646
			c0.183-1.961,0.362-3.923,0.4-5.895c0.16-8.17,0.284-16.34,0.205-24.512C443.534,172.486,443.501,169.531,443.468,166.355z
			 M279.234,203.589c0.545,0.303,1.077,0.206,1.589,0.206c10.89,0.006,21.78,0.005,32.67,0.003c0.405,0,0.81-0.014,1.214-0.043
			c0.368-0.027,0.658-0.227,0.867-0.517c0.168-0.232,0.338-0.481,0.427-0.749c0.182-0.547,0.347-1.106,0.454-1.672
			c0.428-2.275,0.812-4.558,1.37-6.808c0.585-2.359,1.077-4.742,1.829-7.057c2.359-7.266,4.725-14.531,7.079-21.799
			c2.283-7.048,4.558-14.098,6.832-21.149c0.124-0.384,0.217-0.777,0.318-1.168c0.035-0.135-0.139-0.387-0.267-0.391
			c-0.636-0.019-1.272-0.046-1.909-0.046c-22.823-0.002-45.646-0.002-68.469-0.002c-0.521,0-1.043-0.002-1.564,0.011
			c-0.17,0.004-0.347,0.031-0.506,0.088c-0.088,0.032-0.194,0.143-0.204,0.229c-0.02,0.166-0.005,0.348,0.042,0.509
			c0.434,1.501,0.815,3.02,1.331,4.493c1.725,4.915,3.498,9.813,5.255,14.718c2.401,6.703,4.749,13.423,6.769,20.253
			c1.939,6.555,3.667,13.159,4.613,19.944C279.022,202.979,279.154,203.302,279.234,203.589z M297.559,227.396
			c0,0.012,0,0.024,0,0.035c-4.056,0-8.112-0.001-12.168,0.001c-0.463,0-0.927,0.01-1.389,0.03
			c-0.396,0.017-0.603,0.272-0.558,0.704c0.132,1.267,0.268,2.534,0.414,3.8c0.305,2.646,0.615,5.293,0.93,7.938
			c0.273,2.3,0.553,4.6,0.836,6.899c0.296,2.414,0.598,4.828,0.898,7.241c0.279,2.241,0.558,4.483,0.839,6.724
			c0.289,2.298,0.587,4.596,0.869,6.895c0.289,2.357,0.561,4.716,0.845,7.073c0.29,2.415,0.599,4.828,0.874,7.245
			c0.294,2.59,0.558,5.183,0.835,7.774c0.295,2.764,0.617,5.526,0.879,8.294c0.366,3.863,0.723,7.729,1.02,11.598
			c0.306,3.985,0.534,7.976,0.8,11.965c0.019,0.287,0.034,0.582,0.113,0.856c0.04,0.14,0.199,0.308,0.336,0.345
			c0.274,0.075,0.57,0.088,0.858,0.093c1.68,0.027,3.36,0.046,5.04,0.065c0.29,0.003,0.58,0.001,0.869-0.008
			c0.535-0.018,0.733-0.201,0.763-0.725c0.118-2.082,0.223-4.165,0.347-6.247c0.145-2.429,0.295-4.857,0.461-7.285
			c0.107-1.56,0.236-3.119,0.372-4.677c0.166-1.904,0.353-3.807,0.527-5.71c0.158-1.73,0.302-3.462,0.468-5.192
			c0.128-1.326,0.278-2.65,0.424-3.974c0.171-1.554,0.346-3.108,0.52-4.662c0.277-2.475,0.542-4.951,0.835-7.424
			c0.28-2.358,0.589-4.712,0.886-7.068c0.318-2.528,0.637-5.056,0.955-7.584c0.275-2.184,0.547-4.367,0.823-6.551
			c0.276-2.183,0.554-4.366,0.835-6.549c0.288-2.24,0.591-4.478,0.871-6.719c0.287-2.299,0.551-4.6,0.832-6.9
			c0.288-2.357,0.584-4.713,0.873-7.07c0.028-0.229,0.025-0.462,0.036-0.694c0.01-0.197-0.223-0.48-0.41-0.488
			c-0.462-0.019-0.925-0.046-1.388-0.046C305.671,227.395,301.615,227.396,297.559,227.396z"/>
		<path fill="#FFFFFF" d="M106.47,649.723c0.311-0.247,0.608-0.523,0.942-0.745c1.545-1.025,3.103-2.031,4.65-3.052
			c0.677-0.447,1.354-0.895,2.004-1.378c0.97-0.721,1.599-1.667,1.755-2.889c0.095-0.746,0.219-1.492,0.256-2.241
			c0.404-8.104,0.601-16.215,0.739-24.328c0.231-13.619,0.354-27.238,0.334-40.858c-0.007-4.637,0.006-9.274-0.059-13.91
			c-0.098-6.954-0.219-13.908-0.404-20.86c-0.138-5.156-0.393-10.308-0.599-15.462c-0.07-1.741-0.3-3.46-0.672-5.163
			c-0.617-2.83-2.313-4.588-5.131-5.281c-1.241-0.305-2.492-0.533-3.763-0.651c-2.193-0.204-4.388-0.379-6.591-0.422
			c-0.521-0.01-1.043-0.039-1.561-0.095c-0.615-0.066-0.835-0.202-0.849-0.858c-0.005-0.232,0-0.464,0.004-0.695
			c0.031-1.912,0.062-3.825,0.095-5.737c0.005-0.29,0.011-0.58,0.028-0.869c0.022-0.378,0.276-0.591,0.7-0.595
			c0.174-0.001,0.348,0,0.521,0.006c18.134,0.638,36.274,0.678,54.414,0.432c4.983-0.068,9.964-0.288,14.946-0.439
			c0.116-0.003,0.232-0.011,0.347-0.013c9.329-0.198,18.655-0.532,27.988-0.456c3.189,0.026,6.374,0.121,9.553,0.364
			c1.036,0.079,2.065,0.273,3.093,0.443c0.427,0.071,0.695,0.417,0.726,0.856c0.033,0.462,0.057,0.926,0.058,1.389
			c0.003,1.971-0.045,3.939-0.216,5.905c-0.18,2.078-0.289,4.162-0.453,6.241c-0.191,2.426-0.41,4.849-0.615,7.274
			c-0.157,1.848-0.313,3.695-0.466,5.543c-0.152,1.848-0.297,3.696-0.452,5.544c-0.019,0.23-0.07,0.457-0.114,0.684
			c-0.044,0.227-0.257,0.432-0.463,0.45c-0.173,0.016-0.346,0.035-0.519,0.036c-2.318,0.018-4.636,0.034-6.955,0.045
			c-0.229,0.001-0.459-0.038-0.689-0.06c-0.2-0.019-0.304-0.173-0.371-0.325c-0.068-0.155-0.091-0.335-0.11-0.506
			c-0.114-1.036-0.226-2.073-0.33-3.111c-0.276-2.767-0.539-5.536-0.823-8.302c-0.178-1.729-0.391-3.454-0.574-5.182
			c-0.05-0.466-0.304-0.745-0.721-0.875c-1.215-0.38-2.425-0.786-3.657-1.104c-3.033-0.784-6.123-1.276-9.222-1.7
			c-3.446-0.472-6.909-0.79-10.379-0.993c-3.645-0.214-7.297-0.279-10.95-0.196c-2.435,0.055-4.865,0.159-7.284,0.458
			c-1.439,0.178-2.863,0.435-4.276,0.752c-0.281,0.063-0.551,0.176-0.822,0.277c-0.239,0.089-0.357,0.281-0.385,0.526
			c-0.093,0.806-0.206,1.61-0.269,2.418c-0.161,2.08-0.291,4.162-0.448,6.242c-0.324,4.279-0.358,8.569-0.55,12.853
			c-0.055,1.216-0.084,2.433-0.091,3.65c-0.041,7.129-0.071,14.257-0.104,21.386c-0.002,0.347,0.006,0.695,0.021,1.042
			c0.016,0.384,0.253,0.596,0.682,0.605c0.463,0.01,0.927,0.008,1.391,0.004c2.84-0.025,5.68-0.061,8.519-0.075
			c2.956-0.014,5.912-0.008,8.867-0.009c4.757-0.002,9.502,0.248,14.227,0.787c4.902,0.558,9.729,1.496,14.417,3.077
			c4.475,1.509,8.677,3.561,12.54,6.286c5.77,4.07,10.143,9.291,12.928,15.803c1.376,3.215,2.253,6.562,2.682,10.036
			c0.978,7.925-0.385,15.47-3.698,22.683c-3.282,7.147-8.162,13.03-14.375,17.819c-5.385,4.15-11.386,7.104-17.872,9.09
			c-3.997,1.224-8.079,2.038-12.234,2.522c-5.076,0.592-10.17,0.759-15.271,0.756c-5.332-0.003-10.663-0.09-15.991-0.334
			c-5.271-0.241-10.545-0.218-15.816,0.077c-0.984,0.055-1.969,0.077-2.954,0.114c-2.085,0.078-4.169,0.187-6.255,0.225
			c-2.839,0.052-5.679,0.086-8.518,0.053c-1.387-0.016-2.771-0.198-4.157-0.31c-0.21-0.017-0.416-0.254-0.425-0.475
			C106.336,652.536,106.361,651.149,106.47,649.723z M147.6,609.949c0.018,0,0.036,0,0.053,0c0,3.652-0.007,7.303,0.002,10.955
			c0.015,6.492,0.039,12.983,0.062,19.475c0.002,0.521,0.013,1.042,0.04,1.563c0.013,0.249,0.171,0.439,0.396,0.523
			c0.487,0.183,0.979,0.358,1.479,0.499c3.486,0.984,7.051,1.361,10.661,1.265c2.667-0.071,5.318-0.356,7.93-0.932
			c2.553-0.562,5.035-1.339,7.417-2.427c3.503-1.601,6.38-3.962,8.667-7.057c1.559-2.11,2.796-4.396,3.783-6.822
			c1.899-4.665,2.845-9.538,3.086-14.55c0.125-2.605,0.061-5.209-0.242-7.811c-0.383-3.295-1.063-6.515-2.17-9.64
			c-1.15-3.245-2.724-6.261-4.881-8.964c-2.222-2.786-4.953-4.854-8.33-6.041c-0.328-0.115-0.652-0.24-0.98-0.355
			c-3.519-1.232-7.166-1.88-10.852-2.332c-3.46-0.425-6.937-0.514-10.415-0.367c-1.619,0.068-3.234,0.257-4.846,0.436
			c-0.832,0.092-0.99,0.312-1.002,1.11c-0.007,0.521,0,1.043,0.003,1.565C147.508,590.01,147.554,599.98,147.6,609.949z"/>
		<path fill="#FFFFFF" d="M337.388,601.067c-0.285-0.451-0.332-0.975-0.371-1.489c-0.15-1.964-0.317-3.929-0.405-5.897
			c-0.075-1.68-0.153-3.359-0.354-5.028c-0.083-0.688-0.209-1.376-0.382-2.046c-0.511-1.976-1.786-3.205-3.765-3.686
			c-0.675-0.164-1.36-0.308-2.048-0.388c-1.496-0.174-2.995-0.33-4.497-0.444c-7.294-0.552-14.598-0.399-21.9-0.249
			c-2.317,0.048-4.632,0.219-6.947,0.344c-0.462,0.025-0.923,0.086-1.383,0.147c-0.944,0.125-1.017,0.21-1.17,1.184
			c-0.426,2.698-0.558,5.422-0.619,8.143c-0.145,6.433-0.125,12.868,0.122,19.299c0.022,0.579,0.04,1.159,0.06,1.738
			c0.164,4.924,0.3,9.849,0.499,14.772c0.174,4.285,0.419,8.568,0.632,12.851c0.014,0.291,0.04,0.579,0.296,0.84
			c0.972,0.241,2.005,0.347,3.048,0.416c4.224,0.28,8.454,0.352,12.686,0.377c6.9,0.04,13.796-0.107,20.687-0.435
			c3.299-0.157,6.595-0.409,9.884-0.71c2.016-0.185,4.036-0.41,6.01-0.906c0.225-0.056,0.459-0.082,0.676-0.158
			c1.109-0.389,1.185-0.321,1.694-1.543c0.716-1.717,1.193-3.51,1.637-5.309c0.86-3.488,1.574-7.007,2.18-10.549
			c0.263-1.541,0.524-3.083,0.788-4.624c0.037-0.217,0.264-0.43,0.465-0.453c0.172-0.019,0.344-0.049,0.517-0.05
			c2.319-0.006,4.637-0.008,6.956-0.009c0.115,0,0.23,0.021,0.345,0.031c0.225,0.019,0.425,0.231,0.412,0.468
			c-0.088,1.62-0.18,3.24-0.277,4.859c-0.028,0.463-0.087,0.923-0.118,1.386c-0.279,4.28-0.543,8.56-0.835,12.839
			c-0.28,4.105-0.59,8.208-0.878,12.313c-0.085,1.214-0.135,2.431-0.215,3.645c-0.019,0.287-0.081,0.573-0.147,0.854
			c-0.025,0.106-0.117,0.197-0.209,0.344c-0.305,0.038-0.646,0.11-0.988,0.119c-4.404,0.115-8.803,0.364-13.21,0.389
			c-8.811,0.051-17.623,0.067-26.432-0.129c-8.288-0.185-16.576-0.3-24.865-0.212c-3.477,0.037-6.954,0.14-10.431,0.213
			c-1.739,0.037-3.477,0.077-5.216,0.113c-3.477,0.072-6.955,0.149-10.432,0.213c-5.507,0.102-11.013,0.128-16.517-0.11
			c-0.347-0.015-0.695-0.034-1.041-0.063c-0.282-0.024-0.509-0.277-0.513-0.601c-0.016-1.159-0.02-2.318-0.025-3.477
			c-0.002-0.422,0.168-0.792,0.392-1.134c0.42-0.641,0.969-1.159,1.633-1.535c0.604-0.341,1.228-0.651,1.858-0.941
			c0.789-0.364,1.598-0.682,2.39-1.041c0.74-0.335,1.447-0.734,2.091-1.235c1.237-0.963,2.049-2.198,2.346-3.744
			c0.131-0.681,0.24-1.371,0.291-2.062c0.376-5.087,0.634-10.18,0.777-15.28c0.151-5.388,0.338-10.776,0.508-16.164
			c0.015-0.464,0.029-0.927,0.039-1.391c0.404-19.474,0.587-38.949,0.374-58.427c-0.055-4.984-0.189-9.969-0.368-14.95
			c-0.129-3.59-0.304-7.181-0.662-10.758c-0.138-1.382-0.314-2.761-0.614-4.124c-0.254-1.151-0.879-1.995-1.866-2.602
			c-0.797-0.489-1.658-0.823-2.552-1.082c-1.9-0.552-3.849-0.837-5.812-1.015c-1.904-0.173-3.815-0.276-5.722-0.417
			c-0.286-0.021-0.579-0.052-0.849-0.14c-0.142-0.046-0.281-0.206-0.348-0.349c-0.07-0.149-0.068-0.339-0.072-0.512
			c-0.054-2.318-0.105-4.636-0.15-6.954c-0.003-0.171,0.001-0.361,0.072-0.51c0.066-0.138,0.212-0.312,0.344-0.332
			c0.397-0.06,0.806-0.075,1.209-0.068c1.913,0.035,3.825,0.104,5.737,0.123c18.491,0.187,36.981,0.326,55.473,0.183
			c3.942-0.031,7.884-0.032,11.825-0.085c3.477-0.047,6.954-0.144,10.431-0.223c7.534-0.171,15.068-0.287,22.605-0.134
			c1.8,0.037,3.588,0.206,5.374,0.396c0.86,0.091,1.726,0.224,2.517,0.628c0.735,0.376,1.141,0.981,1.179,1.795
			c0.021,0.459-0.033,0.925-0.096,1.382c-0.062,0.458-0.163,0.913-0.271,1.363c-0.49,2.032-0.775,4.098-0.994,6.173
			c-0.323,3.054-0.629,6.11-0.912,9.167c-0.165,1.789-0.271,3.583-0.406,5.374c-0.143,1.907-0.287,3.814-0.435,5.721
			c-0.018,0.23-0.032,0.471-0.113,0.682c-0.054,0.14-0.206,0.274-0.347,0.342c-0.148,0.071-0.337,0.084-0.507,0.081
			c-2.202-0.04-4.405-0.084-6.607-0.138c-0.228-0.006-0.46-0.057-0.678-0.125c-0.096-0.03-0.205-0.143-0.234-0.24
			c-0.066-0.219-0.115-0.451-0.121-0.679c-0.032-1.159-0.061-2.318-0.069-3.477c-0.013-1.855-0.013-3.71-0.013-5.565
			c0-1.104-0.092-2.2-0.282-3.288c-0.05-0.285-0.09-0.573-0.158-0.854c-0.49-2.028-1.72-3.377-3.721-3.993
			c-0.608-0.187-1.228-0.344-1.85-0.475c-2.498-0.526-5.029-0.835-7.57-1.053c-2.367-0.204-4.737-0.372-7.106-0.555
			c-0.289-0.022-0.578-0.043-0.868-0.056c-7.24-0.331-14.482-0.536-21.73-0.358c-2.259,0.055-4.517,0.196-6.773,0.337
			c-0.865,0.054-1.725,0.212-2.585,0.337c-0.227,0.033-0.445,0.124-0.668,0.184c-0.436,0.118-0.718,0.429-0.806,0.836
			c-0.185,0.848-0.355,1.704-0.441,2.566c-0.411,4.097-0.571,8.209-0.688,12.323c-0.046,1.622-0.06,3.246-0.08,4.869
			c-0.06,5.043-0.289,10.08-0.517,15.118c-0.22,4.864-0.355,9.733-0.155,14.603c0.036,0.869,0.065,1.738,0.306,2.584
			c0.135,0.474,0.323,0.641,0.859,0.697c0.115,0.012,0.231,0.024,0.347,0.029c2.836,0.141,5.672,0.305,8.51,0.414
			c2.548,0.098,5.099,0.152,7.649,0.195c5.044,0.085,10.085-0.094,15.126-0.257c1.794-0.058,3.583-0.261,5.345-0.641
			c0.796-0.172,1.572-0.41,2.294-0.788c1.151-0.603,1.881-1.537,2.052-2.841c0.113-0.86,0.184-1.728,0.217-2.595
			c0.046-1.216,0.039-2.434,0.055-3.651c0.025-1.923,0.343-3.806,0.775-5.672c0.065-0.28,0.164-0.554,0.265-0.824
			c0.088-0.235,0.279-0.36,0.524-0.387c0.23-0.025,0.462-0.04,0.693-0.043c2.029-0.031,4.057-0.062,6.086-0.082
			c0.345-0.003,0.695,0.018,1.035,0.077c0.152,0.026,0.321,0.135,0.342,0.343c0.018,0.172,0.052,0.344,0.055,0.516
			c0.009,0.522,0.008,1.043,0.009,1.565c0.033,14.434,0.067,28.867,0.098,43.301c0.001,0.58-0.007,1.159-0.022,1.738
			c-0.008,0.311-0.246,0.588-0.514,0.588c-2.607,0.006-5.215,0.007-7.822,0.002C337.612,601.187,337.505,601.111,337.388,601.067z"
			/>
		<path fill="#FFFFFF" d="M418.842,566.477c0.811,0.031,1.623,0.043,2.432,0.096c3.304,0.215,6.604,0.173,9.902-0.11
			c5.16-0.443,9.997-1.879,14.428-4.619c1.912-1.182,3.454-2.713,4.68-4.583c1.182-1.805,2.077-3.75,2.77-5.785
			c0.955-2.807,1.565-5.69,1.856-8.645c0.171-1.734,0.297-3.466,0.237-5.206c-0.117-3.373-0.547-6.696-1.638-9.909
			c-0.074-0.219-0.145-0.44-0.22-0.659c-1.589-4.603-4.598-7.981-8.862-10.278c-2.468-1.329-5.093-2.225-7.826-2.806
			c-3.648-0.775-7.339-0.999-11.064-0.854c-3.663,0.142-7.267,0.659-10.823,1.531c-1.973,0.484-3.888,1.14-5.728,2.012
			c-4.437,2.103-7.598,5.413-9.5,9.942c-0.948,2.256-1.563,4.602-2.019,6.997c-0.51,2.68-0.73,5.395-0.984,8.107
			c-0.027,0.288-0.059,0.577-0.125,0.857c-0.021,0.091-0.146,0.193-0.245,0.224c-0.162,0.052-0.342,0.07-0.513,0.068
			c-2.26-0.03-4.521-0.067-6.781-0.102c-0.058-0.001-0.116-0.006-0.174-0.01c-0.489-0.03-0.782-0.246-0.855-0.693
			c-0.149-0.914-0.312-1.829-0.398-2.751c-0.214-2.309-0.357-4.622-0.432-6.94c-0.064-1.969-0.158-3.941-0.346-5.901
			c-0.183-1.901-0.452-3.798-0.774-5.681c-0.438-2.569-0.977-5.12-1.445-7.684c-0.387-2.119-0.446-1.871,1.438-2.659
			c3.748-1.568,7.621-2.765,11.547-3.789c4.543-1.185,9.136-2.129,13.773-2.867c3.549-0.565,7.109-1.015,10.683-1.391
			c4.675-0.492,9.362-0.71,14.056-0.798c4.232-0.079,8.459,0.074,12.68,0.423c3.006,0.249,5.993,0.613,8.962,1.138
			c4.577,0.81,9.051,1.981,13.321,3.856c2.398,1.053,4.637,2.372,6.731,3.949c4.666,3.514,7.713,8.11,9.203,13.742
			c1.2,4.537,1.437,9.138,0.865,13.793c-0.255,2.078-0.69,4.112-1.308,6.108c-1.185,3.825-3.221,7.173-5.782,10.218
			c-2.678,3.184-5.872,5.747-9.473,7.816c-3.027,1.739-6.225,3.091-9.536,4.173c-2.256,0.738-4.542,1.387-6.807,2.098
			c-1.326,0.416-2.639,0.869-3.954,1.32c-0.213,0.073-0.413,0.201-0.594,0.337c-0.059,0.044-0.082,0.261-0.047,0.284
			c0.24,0.157,0.485,0.338,0.755,0.408c1.008,0.263,2.019,0.526,3.042,0.716c1.537,0.285,3.088,0.5,4.63,0.762
			c4.407,0.75,8.736,1.793,12.903,3.443c1.834,0.726,3.628,1.535,5.36,2.479c5.154,2.808,9.304,6.667,12.262,11.765
			c1.702,2.932,2.86,6.075,3.582,9.378c0.824,3.766,1.008,7.586,0.673,11.414c-0.553,6.312-2.363,12.265-5.341,17.861
			c-2.139,4.019-4.789,7.659-8.022,10.871c-1.94,1.927-4.057,3.632-6.342,5.131c-4.482,2.941-9.284,5.221-14.346,6.965
			c-4.723,1.627-9.563,2.764-14.498,3.533c-5.454,0.849-10.94,1.219-16.452,1.246c-3.654,0.018-7.297-0.22-10.937-0.522
			c-3.121-0.259-6.224-0.65-9.311-1.159c-6.413-1.057-12.723-2.528-18.825-4.808c-1.684-0.629-3.344-1.315-4.931-2.16
			c-0.868-0.462-1.717-0.966-2.538-1.508c-0.529-0.349-1.008-0.779-1.477-1.209c-0.52-0.478-0.89-1.06-1.047-1.767
			c-0.188-0.848-0.408-1.689-0.59-2.538c-0.327-1.529-0.637-3.062-0.953-4.593c-0.035-0.17-0.063-0.342-0.101-0.512
			c-0.258-1.143-0.102-2.185,0.729-3.072c0.158-0.168,0.279-0.369,0.425-0.549c0.177-0.219,0.511-0.293,0.787-0.15
			c0.565,0.293,1.138,0.576,1.677,0.913c0.884,0.553,1.769,1.11,2.608,1.727c3.874,2.845,8.183,4.802,12.733,6.263
			c4.201,1.348,8.494,2.285,12.864,2.91c5.532,0.791,11.085,0.987,16.65,0.594c5.401-0.381,10.677-1.411,15.73-3.426
			c2.104-0.839,4.122-1.847,6.034-3.065c5.986-3.81,9.941-9.13,11.777-15.983c1.24-4.629,1.665-9.335,1.22-14.125
			c-0.324-3.483-1.007-6.873-2.207-10.158c-0.718-1.965-1.619-3.842-2.712-5.627c-2.839-4.635-6.738-8.058-11.703-10.275
			c-2.393-1.069-4.884-1.818-7.448-2.323c-3.306-0.652-6.652-0.958-10.018-1.025c-3.362-0.067-6.721,0.014-10.082,0.163
			c-3.126,0.139-6.258,0.134-9.387,0.18c-0.579,0.009-1.158-0.033-1.737-0.063c-0.381-0.02-0.603-0.272-0.629-0.68
			c-0.004-0.058-0.012-0.116-0.012-0.173c0.033-3.652,0.066-7.303,0.102-10.955c0.001-0.114,0.004-0.251,0.063-0.337
			c0.091-0.131,0.216-0.264,0.358-0.328c0.152-0.069,0.338-0.07,0.511-0.082c2.373-0.173,4.747-0.218,7.125-0.12
			c1.911,0.079,3.823,0.149,5.734,0.222C418.841,566.491,418.842,566.484,418.842,566.477z"/>
		<path fill="#FFFFFF" d="M271.671,671.375c-0.171-0.879-0.147-1.805-0.136-2.73c0.002-0.182,0.264-0.461,0.443-0.467
			c0.579-0.019,1.158-0.044,1.737-0.04c4.985,0.03,9.97,0.068,14.955,0.1c3.014,0.019,6.029,0.027,9.043,0.047
			c0.463,0.003,0.927,0.02,1.387,0.07c0.155,0.017,0.323,0.141,0.344,0.336c0.037,0.345,0.074,0.691,0.077,1.037
			c0.015,1.857,0.08,1.815-1.911,2.088c-0.573,0.079-1.158,0.071-1.732,0.143c-0.516,0.066-1.05,0.121-1.533,0.297
			c-1.829,0.667-2.017,0.803-2.249,2.655c-0.202,1.61-0.336,3.225-0.412,4.849c-0.452,9.677-0.33,19.355-0.089,29.034
			c0.049,1.97,0.072,3.941,0.139,5.911c0.095,2.78,0.219,5.56,0.333,8.34c0.005,0.116,0.02,0.231,0.032,0.346
			c0.035,0.319,0.232,0.559,0.524,0.602c0.802,0.118,1.604,0.247,2.41,0.333c2.826,0.302,5.662,0.438,8.502,0.513
			c2.03,0.054,4.059,0.021,6.082-0.136c0.864-0.067,1.721-0.23,2.576-0.383c0.338-0.061,0.663-0.204,0.988-0.327
			c0.399-0.15,0.693-0.416,0.818-0.837c0.099-0.333,0.222-0.662,0.283-1.002c0.132-0.741,0.275-1.485,0.335-2.234
			c0.157-1.964,0.323-3.929,0.393-5.898c0.299-8.346,0.193-16.693-0.059-25.037c-0.119-3.938-0.324-7.876-0.661-11.804
			c-0.094-1.097-0.237-2.189-0.372-3.282c-0.035-0.286-0.124-0.565-0.19-0.847c-0.071-0.307-0.246-0.523-0.566-0.576
			c-0.571-0.095-1.143-0.189-1.717-0.26c-1.265-0.157-2.532-0.296-3.797-0.45c-0.483-0.059-0.682-0.281-0.722-0.81
			c-0.053-0.693-0.094-1.388-0.123-2.082c-0.017-0.41,0.222-0.685,0.597-0.701c0.463-0.019,0.927-0.028,1.39-0.026
			c2.319,0.01,4.637,0.025,6.956,0.037c5.739,0.03,11.477,0.057,17.216,0.091c0.578,0.003,1.157,0.026,1.731,0.081
			c0.142,0.014,0.37,0.174,0.386,0.291c0.125,0.919,0.156,1.847-0.005,2.765c-0.022,0.127-0.225,0.294-0.364,0.316
			c-1.087,0.169-2.178,0.309-3.268,0.455c-0.919,0.123-1.839,0.237-2.757,0.365c-0.389,0.054-0.639,0.284-0.686,0.669
			c-0.152,1.265-0.335,2.53-0.419,3.8c-0.548,8.275-0.744,16.561-0.649,24.852c0.048,4.23,0.174,8.461,0.352,12.688
			c0.1,2.371,0.272,4.745,0.64,7.096c0.099,0.629,0.233,1.253,0.381,1.872c0.257,1.08,0.995,1.665,2.046,1.88
			c0.453,0.092,0.917,0.142,1.379,0.179c1.173,0.095,2.277,0.407,3.359,1.014c0.242,0.808,0.208,1.663,0.05,2.518
			c-0.017,0.091-0.131,0.195-0.224,0.232c-0.156,0.063-0.332,0.102-0.5,0.106c-0.579,0.014-1.159,0.012-1.739,0.011
			c-27.302-0.064-54.605-0.127-81.907-0.193c-2.841-0.007-5.68,0.016-8.516,0.211c-1.213,0.083-2.432,0.091-3.649,0.093
			c-0.887,0.001-1.716-0.262-2.455-0.76c-0.135-0.091-0.293-0.247-0.315-0.393c-0.114-0.744-0.162-1.495-0.012-2.24
			c0.019-0.095,0.128-0.19,0.219-0.247c0.093-0.058,0.214-0.088,0.326-0.099c1.382-0.132,2.765-0.268,4.149-0.381
			c0.539-0.044,1.002-0.267,1.468-0.504c0.441-0.224,0.717-0.561,0.784-1.071c0.052-0.401,0.184-0.793,0.221-1.195
			c0.15-1.615,0.316-3.231,0.405-4.85c0.639-11.7,0.614-23.407,0.315-35.116c-0.058-2.258-0.234-4.514-0.379-6.77
			c-0.056-0.865-0.234-1.715-0.405-2.56c-1.555-0.796-3.057-1.51-4.795-1.572c-0.63-0.022-1.258-0.18-1.879-0.314
			c-0.138-0.03-0.32-0.206-0.348-0.341c-0.162-0.798-0.183-1.609-0.04-2.412c0.022-0.122,0.231-0.285,0.367-0.299
			c0.517-0.054,1.039-0.069,1.559-0.072c5.913-0.035,11.825-0.066,17.738-0.094c1.218-0.006,2.432-0.045,3.646-0.16
			c0.98-0.093,1.967-0.117,2.952-0.143c0.403-0.011,0.812,0.025,1.21,0.092c0.715,0.119,1.236,0.805,1.143,1.509
			c-0.053,0.4-0.142,0.802-0.278,1.181c-0.208,0.58-0.62,0.983-1.247,1.086c-0.456,0.075-0.92,0.103-1.382,0.142
			c-0.462,0.039-0.925,0.06-1.387,0.101c-0.23,0.02-0.464,0.048-0.687,0.106c-1.28,0.333-2.188,1.079-2.447,2.417
			c-0.198,1.022-0.335,2.06-0.43,3.097c-0.438,4.794-0.566,9.605-0.632,14.415c-0.065,4.752-0.05,9.507,0.008,14.259
			c0.043,3.535,0.163,7.071,0.34,10.602c0.104,2.08,0.183,4.171,0.56,6.23c0.041,0.226,0.095,0.452,0.177,0.666
			c0.036,0.093,0.146,0.173,0.24,0.226c0.097,0.054,0.216,0.091,0.327,0.097c0.405,0.022,0.81,0.037,1.216,0.04
			c6.086,0.039,12.173,0.076,18.259,0.111c0.405,0.002,0.81-0.014,1.215-0.032c0.288-0.013,0.518-0.253,0.537-0.569
			c0.098-1.62,0.223-3.239,0.28-4.861c0.232-6.662,0.466-13.323,0.507-19.991c0.031-5.044,0.02-10.086-0.103-15.128
			c-0.075-3.073-0.29-6.136-0.687-9.185c-0.037-0.287-0.074-0.575-0.129-0.859c-0.156-0.805-0.332-0.988-1.099-1.118
			c-1.599-0.271-3.199-0.536-4.8-0.799C272.428,671.749,272.025,671.694,271.671,671.375z"/>
		<path fill="#FFFFFF" d="M356.157,729.466c-4.501-0.039-8.675-0.074-12.848-0.116c-0.461-0.005-0.925-0.03-1.381-0.095
			c-0.136-0.019-0.348-0.198-0.355-0.314c-0.038-0.692-0.042-1.387-0.023-2.079c0.007-0.24,0.2-0.429,0.419-0.513
			c0.538-0.206,1.077-0.434,1.637-0.554c0.791-0.171,1.602-0.252,2.404-0.373c0.458-0.069,0.92-0.118,1.372-0.215
			c1.338-0.287,1.36-0.206,1.482-1.672c0.087-1.039,0.19-2.078,0.236-3.12c0.561-12.688,0.584-25.38,0.367-38.076
			c-0.041-2.379-0.236-4.747-0.385-7.118c-0.011-0.173-0.021-0.348-0.053-0.519c-0.26-1.419-0.172-1.571-1.794-2.255
			c-0.864-0.364-1.786-0.48-2.712-0.557c-0.635-0.053-1.273-0.077-1.907-0.141c-0.727-0.074-0.932-0.281-0.985-0.957
			c-0.036-0.462-0.057-0.926-0.07-1.389c-0.026-0.969,0.096-1.094,1.069-1.113c0.406-0.008,0.811-0.004,1.217-0.004
			c7.942-0.001,15.883-0.002,23.825-0.003c0.464,0,0.927,0.003,1.391,0.009c0.827,0.012,0.848,0.336,0.868,0.984
			c0.018,0.586-0.068,1.153-0.264,1.708c-0.238,0.671-0.722,1.05-1.406,1.131c-0.457,0.054-0.925,0.013-1.388,0.016
			c-0.579,0.004-1.16-0.025-1.735,0.026c-0.337,0.03-0.678,0.15-0.989,0.293c-0.604,0.278-1.022,0.735-1.224,1.389
			c-0.291,0.945-0.469,1.91-0.592,2.889c-0.261,2.073-0.372,4.154-0.423,6.242c-0.07,2.899-0.031,5.796,0.086,8.693
			c0.037,0.928,0.116,1.851,0.324,2.758c0.05,0.219,0.249,0.396,0.488,0.411c0.346,0.022,0.694,0.045,1.041,0.048
			c7.767,0.068,15.535,0.133,23.302,0.197c0.348,0.003,0.696,0.003,1.043-0.008c0.574-0.018,0.809-0.23,0.884-0.848
			c0.168-1.38,0.375-2.758,0.372-4.154c-0.006-2.84,0.029-5.681-0.041-8.519c-0.052-2.084-0.254-4.164-0.619-6.223
			c-0.02-0.114-0.024-0.232-0.05-0.344c-0.49-2.068-0.317-2.032-2.605-2.737c-0.826-0.254-1.699-0.357-2.574-0.387
			c-0.52-0.018-1.039-0.073-1.557-0.121c-0.216-0.02-0.452-0.245-0.464-0.447c-0.043-0.751-0.092-1.502-0.11-2.254
			c-0.017-0.755,0.143-0.905,0.912-0.92c0.406-0.008,0.811-0.004,1.217-0.001c8.115,0.056,16.23,0.113,24.346,0.17
			c1.924,0.013,1.792-0.079,1.81,1.793c0.016,1.652,0.009,1.639-1.566,1.769c-1.097,0.09-2.195,0.19-3.284,0.343
			c-1.673,0.235-2.341,0.914-2.549,2.568c-0.115,0.919-0.216,1.846-0.236,2.771c-0.16,7.533-0.502,15.064-0.342,22.602
			c0.044,2.086,0.095,4.172,0.143,6.259c0.065,2.84,0.073,5.68-0.039,8.52c-0.071,1.798,0.001,3.593,0.13,5.387
			c0.084,1.164,0.337,2.29,0.747,3.382c0.258,0.687,0.713,1.162,1.407,1.441c0.926,0.372,1.87,0.61,2.874,0.57
			c0.463-0.019,0.926-0.057,1.389-0.052c0.628,0.006,1.09,0.397,1.218,1.025c0.081,0.397,0.133,0.801,0.177,1.204
			c0.152,1.379,0.048,1.497-1.336,1.509c-0.811,0.007-1.623-0.001-2.435-0.002c-7.536-0.012-15.071-0.021-22.607-0.039
			c-0.576-0.001-1.153-0.046-1.728-0.095c-0.087-0.007-0.218-0.137-0.236-0.228c-0.147-0.745-0.146-1.498-0.016-2.244
			c0.053-0.306,0.307-0.51,0.585-0.59c0.723-0.207,1.449-0.398,2.209-0.452c0.575-0.041,1.147-0.154,1.714-0.267
			c0.964-0.191,1.672-0.749,2.196-1.571c0.411-0.645,0.662-1.355,0.854-2.082c0.177-0.671,0.333-1.355,0.408-2.044
			c0.15-1.382,0.293-2.769,0.339-4.158c0.089-2.665,0.066-5.332-0.126-7.995c-0.075-1.04-0.091-2.085-0.16-3.126
			c-0.08-1.214-0.182-2.427-0.29-3.639c-0.054-0.611-0.234-0.751-0.914-0.764c-0.464-0.009-0.927-0.005-1.391-0.002
			c-7.362,0.046-14.724,0.093-22.085,0.14c-0.29,0.002-0.58,0.002-0.869,0.008c-1.232,0.027-1.334,0.09-1.573,1.357
			c-0.139,0.737-0.252,1.49-0.268,2.239c-0.089,4.115-0.124,8.23,0.135,12.342c0.058,0.926,0.072,1.855,0.15,2.778
			c0.108,1.27,0.241,2.538,0.399,3.803c0.057,0.456,0.207,0.902,0.335,1.347c0.083,0.289,0.283,0.502,0.547,0.645
			c1.145,0.62,2.375,0.909,3.671,0.925c0.463,0.006,0.927-0.029,1.39-0.016c0.515,0.015,0.88,0.302,1.046,0.769
			c0.318,0.896,0.329,1.814,0.197,2.741c-0.027,0.19-0.2,0.305-0.363,0.317c-0.519,0.038-1.041,0.055-1.561,0.052
			C363.945,729.508,359.887,729.485,356.157,729.466z"/>
		<path fill="#FFFFFF" d="M464.53,679.95c-0.121,0.026-0.276,0.013-0.322,0.078c-0.332,0.472-0.657,0.951-0.957,1.445
			c-4.784,7.872-9.552,15.755-14.352,23.618c-1.932,3.165-3.918,6.297-5.903,9.429c-2.454,3.872-5.24,7.506-8.076,11.101
			c-0.644,0.816-1.357,1.588-2.106,2.309c-1.372,1.32-3.024,2.099-4.911,2.42c-1.267,0.216-2.532,0.28-3.808,0.216
			c-0.485-0.024-0.709-0.259-0.737-0.773c-0.018-0.347-0.026-0.695-0.023-1.043c0.01-0.985,0.021-1.97,0.043-2.955
			c0.033-1.448,0.074-2.897,0.116-4.345c0.172-5.909,0.307-11.819,0.528-17.726c0.219-5.852,0.231-11.704,0.2-17.558
			c-0.014-2.611-0.213-5.212-0.394-7.813c-0.109-1.558-0.344-3.108-0.658-4.643c-0.119-0.58-0.445-0.919-0.982-1.096
			c-0.606-0.199-1.213-0.365-1.855-0.434c-1.036-0.112-2.062-0.308-3.095-0.442c-0.765-0.099-1.105-0.659-1.252-1.275
			c-0.16-0.668-0.107-1.382,0.089-2.059c0.027-0.095,0.145-0.183,0.242-0.233c0.099-0.051,0.223-0.069,0.337-0.071
			c0.463-0.01,0.927-0.015,1.391-0.011c8.172,0.07,16.343,0.142,24.515,0.215c0.347,0.003,0.695,0.02,1.041,0.039
			c0.296,0.017,0.512,0.251,0.529,0.566c0.013,0.231,0.024,0.463,0.023,0.695c-0.006,2.049,0.213,1.984-2.093,2.236
			c-0.748,0.082-1.495,0.166-2.24,0.268c-0.285,0.039-0.571,0.108-0.844,0.201c-1.529,0.52-1.932,0.965-2.147,2.576
			c-0.184,1.377-0.329,2.762-0.418,4.149c-0.475,7.412-0.368,14.828-0.13,22.245c0.061,1.912,0.086,3.824,0.152,5.736
			c0.073,2.143,0.171,4.285,0.264,6.427c0.009,0.218-0.04,0.507,0.202,0.606c0.363,0.148,0.484-0.221,0.657-0.419
			c0.266-0.304,0.504-0.636,0.738-0.967c0.536-0.756,1.083-1.506,1.589-2.282c1.267-1.941,2.539-3.879,3.764-5.846
			c4.35-6.984,8.496-14.091,12.666-21.183c2.29-3.896,4.596-7.782,6.907-11.666c0.533-0.896,1.116-1.762,1.677-2.64
			c0.203-0.317,0.507-0.472,0.871-0.491c0.637-0.033,1.274-0.056,1.911-0.067c5.447-0.092,10.894-0.18,16.342-0.269
			c0.174-0.003,0.348-0.003,0.522,0.001c0.406,0.01,0.613,0.224,0.619,0.663c0.007,0.463,0.005,0.927-0.007,1.391
			c-0.025,0.971-0.086,1.035-1.071,1.226c-1.819,0.354-3.638,0.71-5.457,1.062c-0.32,0.062-0.497,0.272-0.597,0.56
			c-0.057,0.164-0.118,0.331-0.14,0.501c-0.134,1.034-0.311,2.067-0.374,3.106c-0.167,2.776-0.365,5.55-0.419,8.334
			c-0.193,9.969-0.108,19.937,0.083,29.904c0.041,2.143,0.187,4.284,0.278,6.427c0.027,0.642,0.149,1.264,0.341,1.876
			c0.22,0.703,0.654,1.239,1.332,1.516c0.587,0.24,1.197,0.437,1.814,0.583c1.355,0.321,2.673,0.756,3.944,1.152
			c0.258,0.274,0.289,0.56,0.292,0.852c0.004,0.348,0.009,0.695,0.003,1.043c-0.016,0.974-0.124,1.081-1.109,1.094
			c-0.464,0.006-0.927,0.001-1.391-0.002c-7.998-0.053-15.996-0.105-23.994-0.164c-0.518-0.004-1.036-0.051-1.552-0.104
			c-0.088-0.009-0.217-0.136-0.235-0.227c-0.152-0.744-0.17-1.499,0.002-2.237c0.044-0.19,0.263-0.383,0.451-0.489
			c0.507-0.287,1.064-0.446,1.644-0.525c0.746-0.101,1.491-0.212,2.236-0.323c0.286-0.042,0.581-0.063,0.855-0.149
			c1.265-0.397,1.44-0.234,1.779-1.792c0.394-1.815,0.591-3.662,0.707-5.513c0.561-8.913,0.705-17.834,0.484-26.762
			c-0.054-2.202-0.078-4.404-0.155-6.605c-0.048-1.389-0.166-2.776-0.261-4.163C464.632,680.283,464.569,680.117,464.53,679.95z"/>
		<path fill="#FFFFFF" d="M127.539,668.092c3.7-0.108,6.943-0.223,10.188-0.291c3.013-0.063,6.027-0.079,9.04-0.111
			c1.104-0.011,2.202,0.085,3.282,0.316c0.449,0.096,0.902,0.228,1.316,0.422c0.733,0.344,1.157,0.95,1.235,1.765
			c0.089,0.928,0.009,1.851-0.118,2.773c-0.269,1.951-0.549,3.9-0.788,5.855c-0.105,0.861-0.12,1.733-0.181,2.6
			c-0.022,0.304-0.26,0.543-0.563,0.542c-0.695-0.002-1.392,0.007-2.083-0.044c-0.796-0.059-1.274-0.513-1.383-1.311
			c-0.079-0.572-0.078-1.155-0.124-1.732c-0.106-1.328-0.212-2.656-0.334-3.982c-0.029-0.315-0.234-0.528-0.548-0.59
			c-0.909-0.181-1.818-0.359-2.731-0.52c-2.687-0.474-5.399-0.702-8.121-0.828c-1.859-0.086-3.708,0.055-5.548,0.304
			c-0.515,0.07-1.023,0.197-1.53,0.317c-0.503,0.119-0.641,0.298-0.672,0.856c-0.071,1.273-0.147,2.546-0.196,3.82
			c-0.168,4.459-0.327,8.919-0.485,13.379c-0.014,0.404-0.003,0.81,0.009,1.215c0.009,0.299,0.24,0.505,0.577,0.514
			c0.463,0.012,0.927,0.016,1.39,0.011c1.449-0.015,2.898-0.059,4.346-0.049c1.854,0.012,3.711,0.016,5.562,0.113
			c2.496,0.13,4.947,0.558,7.328,1.346c1.769,0.585,3.446,1.367,5.005,2.389c4.341,2.846,6.586,6.894,6.793,12.058
			c0.188,4.676-1.386,8.761-4.351,12.327c-2.431,2.923-5.52,4.92-9.073,6.212c-2.188,0.796-4.459,1.228-6.773,1.48
			c-3.003,0.327-6.014,0.386-9.028,0.382c-3.651-0.004-7.303-0.047-10.954-0.065c-1.971-0.01-3.941-0.002-5.912-0.006
			c-0.405-0.001-0.81-0.016-1.214-0.031c-0.16-0.006-0.332-0.189-0.325-0.338c0.058-1.292,0.506-2.368,1.694-3.026
			c0.253-0.141,0.513-0.269,0.774-0.395c1.029-0.5,1.117-0.421,1.222-1.85c0.154-2.08,0.295-4.163,0.369-6.248
			c0.293-8.283,0.451-16.569,0.375-24.859c-0.036-3.943-0.205-7.88-0.387-11.816c-0.091-1.965-0.242-3.934-0.611-5.874
			c-0.075-0.397-0.184-0.788-0.274-1.182c-0.139-0.608-0.529-1.022-1.045-1.326c-0.763-0.45-1.61-0.65-2.48-0.731
			c-0.634-0.059-1.273-0.057-1.91-0.093c-0.288-0.016-0.584-0.027-0.858-0.104c-0.138-0.039-0.316-0.206-0.34-0.34
			c-0.162-0.913-0.203-1.837-0.108-2.76c0.014-0.134,0.193-0.269,0.324-0.365c0.084-0.061,0.219-0.067,0.332-0.07
			c0.347-0.011,0.695-0.011,1.043-0.012C115.127,668.122,121.56,668.107,127.539,668.092z M127.34,724.65
			c0.315,0.072,0.537,0.138,0.764,0.173c2.072,0.321,4.157,0.332,6.237,0.138c1.324-0.124,2.626-0.411,3.875-0.909
			c2.25-0.898,3.916-2.421,5.007-4.58c0.446-0.883,0.787-1.805,1.01-2.766c0.567-2.441,0.795-4.917,0.606-7.416
			c-0.118-1.557-0.332-3.102-0.88-4.589c-0.889-2.415-2.491-4.135-4.841-5.168c-0.904-0.398-1.84-0.7-2.807-0.891
			c-2.796-0.552-5.623-0.723-8.468-0.645c-0.113,0.003-0.237,0.023-0.333,0.076c-0.095,0.052-0.212,0.146-0.231,0.239
			c-0.058,0.281-0.1,0.57-0.101,0.856c-0.005,2.085,0.003,4.169,0.006,6.254c0.008,5.791,0.013,11.582,0.025,17.372
			C127.212,723.367,127.149,723.948,127.34,724.65z"/>
		<path fill="#FFFFFF" d="M205.72,710.914c-0.363-0.027-0.705-0.074-1.046-0.074c-6.722-0.013-13.445-0.021-20.168-0.028
			c-0.231,0-0.463,0.013-0.694,0.029c-0.247,0.017-0.439,0.141-0.563,0.35c-0.148,0.248-0.286,0.503-0.414,0.762
			c-1.235,2.501-2.234,5.09-2.9,7.801c-0.304,1.239-0.568,2.487-0.537,3.774c0.006,0.23,0.013,0.47,0.085,0.684
			c0.048,0.146,0.189,0.333,0.322,0.367c0.671,0.172,1.349,0.334,2.034,0.434c1.031,0.152,2.07,0.25,3.106,0.371
			c0.446,0.052,0.793,0.284,0.899,0.707c0.257,1.018,0.301,2.056,0.107,3.093c-0.017,0.092-0.135,0.184-0.228,0.236
			c-0.095,0.054-0.217,0.079-0.328,0.083c-0.405,0.015-0.811,0.021-1.216,0.02c-5.505-0.01-11.011-0.022-16.516-0.034
			c-0.29-0.001-0.58,0.001-0.869-0.008c-0.78-0.024-0.941-0.188-0.944-0.902c-0.003-0.76,0.106-1.502,0.324-2.228
			c0.192-0.639,0.609-0.974,1.26-1c0.405-0.016,0.811,0.009,1.216-0.004c0.908-0.029,1.682-0.38,2.339-1.004
			c0.51-0.484,0.927-1.041,1.253-1.657c0.406-0.767,0.809-1.541,1.144-2.34c1.435-3.417,2.864-6.837,4.261-10.27
			c3.822-9.386,7.603-18.789,11.451-28.165c1.341-3.267,2.812-6.481,4.256-9.705c0.473-1.055,1.044-2.067,1.583-3.092
			c0.161-0.307,0.356-0.598,0.552-0.884c0.24-0.35,0.556-0.571,1.009-0.568c1.217,0.007,2.434,0.01,3.651-0.005
			c0.503-0.006,0.882,0.205,1.227,0.545c0.543,0.535,0.977,1.15,1.305,1.832c0.301,0.625,0.589,1.261,0.82,1.914
			c1.005,2.842,2.228,5.595,3.377,8.378c3.91,9.476,7.816,18.953,11.768,28.411c1.563,3.74,3.238,7.433,4.876,11.141
			c0.374,0.847,0.794,1.675,1.219,2.498c0.32,0.619,0.71,1.195,1.204,1.694c0.635,0.641,1.382,1.046,2.296,1.097
			c0.52,0.029,1.043,0.03,1.561,0.077c0.709,0.064,1.175,0.464,1.383,1.138c0.257,0.836,0.387,1.693,0.326,2.573
			c-0.02,0.292-0.248,0.524-0.569,0.536c-0.463,0.018-0.926,0.031-1.389,0.03c-7.94-0.004-15.879-0.01-23.819-0.018
			c-0.463,0-0.926-0.02-1.388-0.041c-0.272-0.013-0.506-0.297-0.514-0.596c-0.025-0.877,0.11-1.734,0.384-2.564
			c0.199-0.603,0.691-0.961,1.307-0.96c0.579,0.001,1.158,0.038,1.736,0.069c1.202,0.065,2.11-0.509,2.889-1.343
			c0.108-0.116,0.16-0.309,0.182-0.474c0.069-0.523,0.023-1.044-0.123-1.549c-0.129-0.444-0.272-0.886-0.444-1.316
			c-1.182-2.958-2.371-5.912-3.566-8.865C206.068,711.547,205.89,711.249,205.72,710.914z M194.508,683.742
			c-0.195,0.375-0.373,0.669-0.506,0.981c-0.655,1.544-1.298,3.093-1.945,4.64c-2.01,4.801-4.022,9.602-6.026,14.406
			c-0.199,0.477-0.351,0.973-0.501,1.468c-0.021,0.068,0.08,0.226,0.159,0.258c0.155,0.063,0.334,0.09,0.504,0.092
			c5.381,0.076,10.763,0.146,16.144,0.218c0.058,0.001,0.116,0.001,0.174-0.001c0.058-0.002,0.115-0.006,0.173-0.008
			c0.436-0.017,0.675-0.281,0.558-0.663c-0.34-1.105-0.661-2.218-1.058-3.303c-1.808-4.945-3.849-9.795-5.95-14.621
			c-0.416-0.954-0.835-1.907-1.272-2.852C194.869,684.156,194.696,683.992,194.508,683.742z"/>
	</g>
</g>
</svg>
