<?xml version="1.0" encoding="UTF-8" standalone="no"?><!DOCTYPE svg PUBLIC "-//W3C//DTD SVG 1.1//EN" "http://www.w3.org/Graphics/SVG/1.1/DTD/svg11.dtd"><svg width="100%" height="100%" viewBox="0 0 966 483" version="1.1" xmlns="http://www.w3.org/2000/svg" xmlns:xlink="http://www.w3.org/1999/xlink" xml:space="preserve" xmlns:serif="http://www.serif.com/" style="fill-rule:evenodd;clip-rule:evenodd;stroke-linejoin:round;stroke-miterlimit:1.41421;"><path d="M742.159,115.461c-0.616,-16.594 -8.438,-29.525 -26.904,-30.957c-20.987,-1.635 -29.579,13.336 -32.736,30.957l59.64,0Zm-174.254,-21.021c-35.04,-5.563 -61.752,2.765 -64.954,42.085c-1.75,21.494 4.365,51.208 31.85,51.208c13.755,0 20.622,-8.674 26.835,-19.584c4.064,-7.13 5.827,-15.194 6.269,-23.232l0,-50.477Zm4.307,104.733c-12.925,15.352 -27.573,21.832 -49.664,21.832c-48.813,0 -71.456,-38.605 -69.219,-82.674c3.163,-62.363 55.083,-94.928 114.576,-80.648l0,-53.579c0,-1.181 0.99,-2.155 2.198,-2.155l45.122,0c1.211,0 2.198,0.974 2.198,2.155l0,212.005c0,1.19 -0.987,2.163 -2.198,2.163l-43.125,0c-0.664,0 -1.221,-0.256 -1.659,-0.744c-0.434,-0.48 -0.608,-1.069 -0.517,-1.709l2.288,-16.646Zm-137.232,-195.069l0,212.005c0,1.19 -0.989,2.163 -2.189,2.163l-45.803,0c-1.216,0 -2.2,-0.973 -2.2,-2.163l0,-212.005c0,-1.181 0.984,-2.155 2.2,-2.155l45.803,0c1.2,0 2.189,0.974 2.189,2.155m-294.139,171.883l0,-45.787l-31.682,0c-1.214,0 -2.198,-0.965 -2.198,-2.157l0,-31.16c0,-1.176 0.984,-2.152 2.198,-2.152l79.48,0c1.21,0 2.202,0.976 2.202,2.152l0,112.024c0,1.04 -0.741,1.928 -1.789,2.12c-86.024,15.986 -187.405,15.64 -189.04,-96.806c-0.411,-28.541 9.683,-57.034 29.328,-78.266c23.291,-25.152 55.595,-35.955 89.688,-35.955c20.851,0 40.949,3.208 61.44,6.6c1.027,0.171 1.771,0.979 1.837,1.992l2.675,41.2c0.045,0.752 -0.267,1.421 -0.877,1.869c-0.614,0.454 -1.36,0.552 -2.075,0.299c-20.131,-7.248 -35.971,-11.136 -57.589,-11.136c-44.947,0 -72.126,34.405 -71.976,76.184c0.224,57.296 36.597,74.155 88.378,58.979m715.326,-101.28c11.437,-13.278 27.994,-21.419 45.637,-23.534c17.693,-2.136 37.429,1.926 50.413,14.568c8.995,8.755 13.123,20.104 13.123,32.419l0,117.949c0,1.19 -0.992,2.163 -2.197,2.163l-44.39,0c-1.205,0 -2.197,-0.973 -2.197,-2.163l0,-100.218c0,-34.958 -59.093,-38.654 -60.389,15.01l0,85.208c0,1.19 -0.987,2.163 -2.2,2.163l-45.8,0c-1.216,0 -2.208,-0.973 -2.208,-2.163l0,-158.248c0,-1.194 0.992,-2.162 2.208,-2.162l45.8,0c1.213,0 2.2,0.968 2.2,2.162l0,16.846Zm-568.312,112.381c43.733,0.824 44.234,-98.973 0.77,-99.792c-43.485,-0.821 -44.474,98.973 -0.77,99.792m-80.755,-50.453c1.424,-114.462 160.864,-114.456 162.288,0c1.403,112.608 -163.691,112.608 -162.288,0m313.339,185.301l0,-21.909c0,-43.144 54.237,-41.92 84.488,-34.187c0.936,0.251 1.578,1.019 1.634,1.952l2.16,32.093c0.054,0.803 -0.312,1.512 -0.986,1.947c-0.686,0.443 -1.496,0.475 -2.222,0.109c-27.432,-14.09 -34.325,-8.53 -34.634,19.995l21.434,0c1.211,0 2.206,0.973 2.206,2.165l0,32.094c0,1.194 -0.995,2.162 -2.206,2.162l-21.445,0l0,118.795c0,1.189 -0.987,2.149 -2.197,2.149l-46.043,0c-1.205,0 -2.189,-0.96 -2.189,-2.149l0,-118.795l-47.275,0l0,118.795c0,1.189 -0.989,2.149 -2.192,2.149l-46.043,0c-1.205,0 -2.192,-0.96 -2.192,-2.149l0,-118.795l-15.245,0c-1.211,0 -2.195,-0.968 -2.195,-2.162l0,-32.094c0,-1.192 0.984,-2.165 2.195,-2.165l15.245,0l0,-21.909c0,-43.144 54.235,-41.92 84.486,-34.187c0.93,0.251 1.576,1.019 1.637,1.952l2.165,32.093c0.048,0.803 -0.32,1.512 -1.002,1.947c-0.688,0.443 -1.491,0.475 -2.216,0.109c-27.432,-14.09 -34.318,-8.53 -34.632,19.995l47.264,0Zm-292.198,-50.723l2.67,41.203c0.05,0.744 -0.278,1.416 -0.886,1.864c-0.605,0.448 -1.36,0.552 -2.061,0.301c-20.088,-7.24 -42.381,-11.136 -63.957,-11.136c-95.315,0 -95.315,138.379 0,138.379c21.576,0 43.869,-3.896 63.957,-11.136c0.701,-0.253 1.456,-0.139 2.061,0.304c0.608,0.443 0.928,1.123 0.886,1.864l-2.67,41.205c-0.066,1.003 -0.821,1.827 -1.826,1.992c-20.456,3.382 -46.995,6.606 -67.806,6.606c-158.6,0 -158.6,-220.046 0,-220.046c20.811,0 47.35,3.227 67.806,6.611c1.005,0.163 1.757,0.971 1.826,1.989m647.48,105.896l-59.509,0c3.147,-17.624 11.723,-32.592 32.659,-30.962c18.434,1.434 26.234,14.362 26.85,30.962m-13.952,72.016c-24.365,0 -45.458,-13.973 -46.616,-38.797l105.667,0c1.067,0 1.965,-0.733 2.16,-1.768c1.024,-5.405 0.773,-14.771 0.773,-20.459c0,-27.533 -12.317,-52.154 -37.226,-65.749c-12.462,-6.795 -24.59,-9.904 -38.851,-9.933c-50.349,-0.08 -78.987,32.104 -80.635,80.432c-1.97,57.602 31.254,89.808 89.328,89.808c16.419,0 35.032,-3.096 50.312,-9.048c0.752,-0.286 1.251,-0.91 1.363,-1.696l4.717,-32.616c0.118,-0.827 -0.218,-1.587 -0.896,-2.062c-0.69,-0.474 -1.528,-0.541 -2.277,-0.162c-14.309,7.256 -31.672,12.05 -47.819,12.05m-214.648,-38.805c1.158,24.832 22.243,38.805 46.616,38.805c16.142,0 33.512,-4.797 47.816,-12.05c0.75,-0.382 1.59,-0.315 2.275,0.162c0.685,0.48 1.019,1.235 0.909,2.062l-4.73,32.616c-0.112,0.781 -0.611,1.408 -1.363,1.696c-15.285,5.952 -33.891,9.048 -50.309,9.048c-58.072,0 -91.299,-32.206 -89.331,-89.803c1.648,-48.333 30.291,-80.523 80.635,-80.432c14.258,0.024 26.397,3.133 38.864,9.925c24.896,13.595 37.224,38.219 37.224,65.75c0,5.696 0.237,15.053 -0.787,20.461c-0.181,1.032 -1.085,1.76 -2.152,1.76l-105.667,0Zm60.566,-33.211c-0.611,-16.6 -8.422,-29.528 -26.851,-30.962c-20.936,-1.64 -29.52,13.338 -32.664,30.962l59.515,0Zm-468.038,21.064c1.424,-114.461 160.526,-114.456 161.944,0c1.4,112.611 -163.344,112.611 -161.944,0m80.595,50.459c43.635,0.819 44.131,-98.976 0.76,-99.789c-43.387,-0.83 -44.376,98.968 -0.76,99.789m361.221,-299.952c1.166,24.824 22.283,38.803 46.715,38.803c16.181,0 33.584,-4.798 47.92,-12.054c0.744,-0.376 1.589,-0.317 2.277,0.166c0.688,0.477 1.024,1.245 0.907,2.064l-4.725,32.608c-0.12,0.786 -0.622,1.408 -1.374,1.704c-15.325,5.944 -33.96,9.034 -50.424,9.034c-58.205,0 -91.49,-32.197 -89.517,-89.792c1.656,-48.333 30.349,-80.52 80.816,-80.437c14.28,0.021 26.448,3.136 38.925,9.931c24.966,13.589 37.307,38.224 37.307,65.746c0,5.699 0.245,15.062 -0.773,20.459c-0.198,1.037 -1.099,1.768 -2.166,1.768l-105.888,0Z" style="fill:#fff;"/></svg>