<?xml version="1.0" encoding="UTF-8" standalone="no"?><!DOCTYPE svg PUBLIC "-//W3C//DTD SVG 1.1//EN" "http://www.w3.org/Graphics/SVG/1.1/DTD/svg11.dtd"><svg width="100%" height="100%" viewBox="0 0 1439 408" version="1.1" xmlns="http://www.w3.org/2000/svg" xmlns:xlink="http://www.w3.org/1999/xlink" xml:space="preserve" xmlns:serif="http://www.serif.com/" style="fill-rule:evenodd;clip-rule:evenodd;stroke-linejoin:round;stroke-miterlimit:1.41421;"><rect id="Монтажная-область1" serif:id="Монтажная область1" x="0" y="0" width="1438.21" height="407.438" style="fill:none;"/><g><path d="M390.776,158.601c-11.323,9.314 -22.621,17.688 -32.843,27.218c-18.17,16.942 -18.245,24.931 -0.344,41.806c10.174,9.589 21.47,17.989 33.008,27.544c-17.925,62.581 -55.981,108.53 -117.341,134.074c-22.112,9.206 -22.128,8.651 -37.04,-10.096c-5.627,-7.072 -11.768,-13.856 -18.411,-19.968c-11.229,-10.336 -18.661,-10.629 -29.632,0.174c-9.741,9.594 -18.048,20.656 -26.917,31.128c-2.061,2.434 -3.848,5.101 -6.192,8.242c-75.283,-20.997 -123.448,-68.976 -145.531,-143.805c9.867,-7.851 19.784,-15.069 28.942,-23.152c22.992,-20.299 22.957,-29.76 -0.035,-49.76c-9.021,-7.848 -18.68,-14.965 -28.709,-22.944c15.994,-57.933 50.12,-101.629 104.568,-128.725c10.402,-5.176 21.848,-8.219 32.64,-12.667c4.714,-1.944 7.082,-0.76 9.973,3.277c6.461,9.022 13.16,17.976 20.651,26.139c18.48,20.139 26.445,20.237 44.797,0.341c8.891,-9.64 16.672,-20.306 25.784,-31.53c73.269,21.168 120.565,68.936 142.632,142.704Zm-290.419,30.906c0,-16.701 0.096,-32.472 -0.09,-48.242c-0.032,-2.731 -0.918,-7.646 -1.976,-7.806c-6.254,-0.944 -12.87,-1.717 -18.92,-0.445c-1.918,0.403 -3.483,7.248 -3.507,11.157c-0.256,39.182 -0.168,78.363 -0.147,117.547c0.006,12.531 0.251,12.736 12.736,12.715c11.739,-0.022 11.888,-0.15 11.904,-11.563c0.019,-12.867 0.006,-25.731 0.006,-38.597c0,-3.958 0,-7.912 0,-11.715c22.28,0 43.178,0 64.92,0c0,17.267 -0.04,33.896 0.013,50.523c0.037,11.136 0.416,11 13.208,11.493c8.317,0.32 11.88,-1.611 11.749,-11.043c-0.536,-38.298 -0.109,-76.608 -0.272,-114.912c-0.077,-17.794 3.627,-16.368 -17.048,-16.578c-5.901,-0.059 -7.712,2.698 -7.65,8.002c0.101,8.771 0.005,17.544 0,26.315c-0.006,7.725 0,15.448 0,23.6c-21.075,0 -40.347,0.008 -59.619,-0.016c-1.411,-0.003 -2.819,-0.224 -5.307,-0.435Zm164.912,32.806c9.099,0 16.958,0.282 24.79,-0.054c24.92,-1.069 43.722,-17.813 45.522,-40.258c2.08,-25.952 -11.709,-44.184 -38.818,-48.15c-15.496,-2.266 -31.475,-1.096 -47.222,-1.824c-6.552,-0.304 -8.813,2.366 -8.792,8.691c0.131,41.555 0.243,83.109 -0.056,124.661c-0.074,10.432 6.646,8.862 13.022,9.086c6.781,0.24 12.093,-0.208 11.704,-9.518c-0.576,-13.701 -0.15,-27.445 -0.15,-42.634Z" style="fill:#fff;fill-rule:nonzero;"/><path d="M100.357,189.507c2.488,0.211 3.894,0.432 5.302,0.432c19.272,0.024 38.544,0.016 59.618,0.016c0,-8.152 -0.005,-15.874 0,-23.6c0.006,-8.773 0.102,-17.544 0,-26.314c-0.061,-5.302 1.752,-8.062 7.651,-8.003c20.677,0.208 16.973,-1.219 17.048,16.579c0.165,38.304 -0.264,76.613 0.272,114.912c0.131,9.432 -3.429,11.365 -11.749,11.042c-12.792,-0.493 -13.171,-0.357 -13.208,-11.493c-0.056,-16.629 -0.014,-33.256 -0.014,-50.523c-21.744,0 -42.64,0 -64.92,0c0,3.803 0,7.76 0,11.715c0,12.867 0.014,25.731 -0.005,38.597c-0.016,11.414 -0.165,11.542 -11.904,11.563c-12.485,0.021 -12.731,-0.184 -12.736,-12.715c-0.019,-39.181 -0.107,-78.365 0.147,-117.546c0.026,-3.91 1.589,-10.755 3.506,-11.158c6.054,-1.272 12.667,-0.498 18.92,0.446c1.059,0.16 1.944,5.074 1.976,7.805c0.192,15.771 0.096,31.544 0.096,48.245Z" style="fill:#fff;fill-opacity:0;fill-rule:nonzero;"/><path d="M265.269,222.313c0,15.189 -0.426,28.933 0.15,42.634c0.392,9.312 -4.92,9.758 -11.704,9.518c-6.376,-0.224 -13.096,1.346 -13.022,-9.086c0.299,-41.552 0.187,-83.106 0.056,-124.661c-0.018,-6.325 2.24,-8.995 8.792,-8.691c15.747,0.728 31.726,-0.442 47.222,1.824c27.109,3.966 40.896,22.198 38.818,48.15c-1.797,22.445 -20.602,39.189 -45.522,40.258c-7.832,0.339 -15.691,0.054 -24.79,0.054Zm0.038,-21.238c9.773,-0.712 18.485,-0.706 26.962,-2.114c13.158,-2.187 18.886,-10.024 18.318,-23.31c-0.48,-11.256 -8.024,-19.04 -20.168,-20.149c-6.376,-0.581 -12.872,-0.784 -19.224,-0.195c-2.107,0.195 -5.552,3.331 -5.627,5.232c-0.501,12.814 -0.261,25.656 -0.261,40.536Z" style="fill:#fff;fill-opacity:0;fill-rule:nonzero;"/><path d="M265.307,201.075c0,-14.88 -0.24,-27.722 0.261,-40.536c0.075,-1.898 3.52,-5.034 5.627,-5.232c6.352,-0.589 12.848,-0.389 19.224,0.195c12.144,1.109 19.688,8.893 20.168,20.149c0.568,13.286 -5.158,21.123 -18.318,23.31c-8.477,1.408 -17.189,1.402 -26.962,2.114Z" style="fill:#fff;fill-rule:nonzero;"/></g><g><path d="M484.221,237.435c7.099,-19.136 13.619,-36.328 19.75,-53.656c0.877,-2.477 0.512,-5.834 -0.366,-8.418c-4.096,-12.072 -8.634,-23.992 -12.885,-36.014c-2.317,-6.552 -0.944,-8.336 6.128,-8.522c15.389,-0.408 15.384,-0.406 20.963,13.968c0.33,0.85 0.842,1.632 1.805,3.458c1.117,-2.512 1.923,-4.122 2.565,-5.794c4.443,-11.55 9.806,-14.398 22.038,-11.555c4.605,1.069 4.789,3.893 3.264,7.803c-4.55,11.656 -9.174,23.298 -13.123,35.16c-1.197,3.6 -1.357,8.242 -0.187,11.813c5.419,16.509 11.478,32.808 17.827,50.64c1.371,-3.109 2.251,-4.872 2.941,-6.704c11.504,-30.536 23.123,-61.029 34.336,-91.672c2.003,-5.475 4.52,-7.445 10.494,-7.285c16.61,0.448 16.648,0.138 10.816,15.626c-15.131,40.184 -30.398,80.318 -45.307,120.582c-1.923,5.194 -4.245,7.141 -9.909,6.978c-14.39,-0.41 -14.43,-0.093 -19.31,-13.354c-5.757,-15.648 -11.453,-31.318 -17.762,-48.587c-1.552,3.731 -2.606,6.077 -3.515,8.48c-6.075,16.064 -12.211,32.109 -18.107,48.24c-1.378,3.773 -3.269,5.171 -7.464,5.192c-16.984,0.085 -16.973,0.259 -22.81,-15.76c-14.203,-38.952 -28.422,-77.899 -42.622,-116.851c-3.256,-8.93 -2.266,-10.328 7.198,-10.378c14.818,-0.08 14.853,-0.094 19.76,13.632c10.077,28.184 20.109,56.384 30.176,84.573c0.805,2.24 1.741,4.432 3.306,8.405Z" style="fill:#fff;fill-rule:nonzero;"/><path d="M817.131,227.886c0,-28.739 -0.003,-57.475 0,-86.213c0,-10.835 0.008,-10.835 10.448,-10.848c12.658,-0.019 12.661,-0.019 12.661,12.381c0,40.323 0.011,80.648 -0.008,120.971c-0.005,9.248 -0.357,8.816 -9.523,9.698c-9.688,0.934 -15.354,-2.49 -20.626,-10.794c-17.382,-27.371 -35.728,-54.128 -53.72,-81.112c-1.334,-2 -2.782,-3.92 -5.224,-7.352c-0.182,4.064 -0.39,6.581 -0.392,9.101c-0.024,27.045 -0.174,54.093 0.096,81.139c0.066,6.72 -2.118,9.141 -8.96,8.962c-15.576,-0.402 -14.528,1.19 -14.518,-14.229c0.03,-39.832 0.158,-79.664 -0.125,-119.493c-0.051,-7.107 2.272,-8.955 9.264,-9.563c10.115,-0.88 15.827,2.699 21.237,11.216c17.246,27.157 35.48,53.685 53.339,80.451c1.443,2.162 2.928,4.296 4.395,6.445c0.549,-0.256 1.101,-0.509 1.656,-0.76Z" style="fill:#fff;fill-rule:nonzero;"/><path d="M915.976,176.467c0,28.734 0.104,57.467 -0.133,86.2c-0.03,3.566 -1.352,9.875 -2.966,10.179c-5.842,1.096 -12.09,0.419 -18.114,-0.245c-0.912,-0.102 -2.046,-3.686 -2.051,-5.659c-0.117,-43.027 -0.051,-86.056 -0.144,-129.083c-0.011,-5.048 2.037,-7.314 7.016,-7.029c0.491,0.029 0.997,0.077 1.472,-0.011c10.456,-1.914 16.683,2.504 22.384,11.544c17.029,27 35.179,53.294 52.893,79.859c1.44,2.157 2.92,4.285 5.558,8.152c0.242,-4.189 0.466,-6.253 0.466,-8.32c0.024,-27.293 0.214,-54.587 -0.12,-81.875c-0.085,-6.973 1.808,-9.698 9.139,-9.496c14.096,0.392 14.107,0.038 14.107,14.027c0,39.832 0.01,79.664 -0.008,119.496c-0.006,9.235 -0.35,8.784 -9.547,9.675c-9.707,0.938 -15.352,-2.534 -20.613,-10.819c-17.39,-27.365 -35.731,-54.128 -53.723,-81.112c-1.331,-1.995 -2.779,-3.909 -4.173,-5.861c-0.48,0.122 -0.96,0.25 -1.443,0.378Z" style="fill:#fff;fill-rule:nonzero;"/><path d="M1260.52,212.049c9.869,17.701 19.562,35.026 29.189,52.389c4.043,7.293 2.883,8.357 -5.069,9.427c-12.568,1.693 -20.256,-2.307 -25.408,-14.467c-5.142,-12.131 -13.067,-23.053 -19.008,-34.888c-3.208,-6.389 -7.155,-9.325 -14.294,-8.197c-3.085,0.488 -6.312,0.082 -10.317,0.082c-0.227,3.016 -0.576,5.582 -0.587,8.15c-0.056,13.768 -0.16,27.538 0.035,41.304c0.077,5.485 -1.597,8.056 -7.597,7.933c-19.003,-0.381 -16.766,1.891 -16.79,-16.325c-0.05,-39.094 0.131,-78.187 -0.149,-117.28c-0.051,-7.024 1.973,-9.768 9.205,-9.462c15.211,0.646 30.526,-0.186 45.654,1.182c20.322,1.84 34.645,14.328 38.301,31.312c4.32,20.069 -2.845,35.877 -21.395,47.234c-0.397,0.246 -0.712,0.638 -1.77,1.606Zm-45.227,-18.211c9.232,0 17.811,0.536 26.291,-0.136c10.49,-0.835 17.336,-8.091 18.248,-17.944c0.874,-9.467 -3.907,-18.376 -13.267,-20.304c-10.053,-2.072 -20.587,-1.805 -31.275,-2.587c0.003,14.611 0.003,27.318 0.003,40.971Z" style="fill:#fff;fill-rule:nonzero;"/><path d="M1083,153.446c0,12.264 0,23.251 0,35.411c5.797,0 11.341,0 16.885,0c11.557,0 23.115,0.12 34.669,-0.048c5.203,-0.075 7.592,1.704 7.483,7.285c-0.339,16.979 1.747,15.355 -14.685,15.381c-14.488,0.022 -28.976,0.006 -44.056,0.006c0,13.232 0,26.077 0,39.842c14.066,0 28.005,0 41.946,0c3.443,0 6.886,-0.002 10.328,0c11.059,0.006 11.059,0.006 11.062,10.83c0.005,11.538 0.005,11.538 -11.848,11.538c-22.87,0 -45.739,-0.186 -68.603,0.118c-6.56,0.088 -8.451,-2.296 -8.419,-8.622c0.206,-42.048 0.19,-84.096 0.014,-126.144c-0.024,-6.01 1.96,-8.354 8.082,-8.304c24.342,0.208 48.688,0.192 73.03,0.006c5.68,-0.043 7.826,1.933 7.848,7.733c0.053,14.968 0.266,14.968 -14.523,14.968c-16.184,0 -32.368,0 -49.213,0Z" style="fill:#fff;fill-rule:nonzero;"/><path d="M1418.14,150.355c-0.469,0.848 -0.632,1.342 -0.952,1.694c-3.947,4.32 -7.315,10.96 -12.072,12.184c-3.856,0.992 -9.435,-4.451 -14.168,-7.179c-8.901,-5.133 -18.253,-7.219 -28.291,-4.149c-6.568,2.008 -11.309,6.034 -12.264,13.24c-0.946,7.16 2.11,12.808 8.328,15.885c7.888,3.901 16.232,6.883 24.387,10.24c5.211,2.147 10.576,3.971 15.629,6.435c15.038,7.33 23.715,19.186 23.022,36.248c-0.75,18.44 -11.019,30.674 -27.819,37.165c-24.659,9.531 -57.731,-0.157 -74.779,-21.443c0.227,-0.589 0.32,-1.384 0.755,-1.885c3.837,-4.437 7.176,-11.437 11.789,-12.429c3.966,-0.854 9.502,5.037 14.179,8.186c9.517,6.408 19.995,9.928 31.328,8.256c5.253,-0.776 10.992,-3.261 14.952,-6.744c8.059,-7.085 6.776,-18.856 -2.384,-24.45c-5.8,-3.542 -12.429,-5.75 -18.733,-8.443c-8.115,-3.469 -16.502,-6.381 -24.374,-10.323c-15.642,-7.832 -21.986,-21.037 -20.461,-38.226c1.387,-15.64 10.448,-25.51 24.259,-31.539c22.25,-9.712 52.581,-2.003 67.669,17.277Z" style="fill:#fff;fill-rule:nonzero;"/><path d="M650.653,202.134c0,-20.648 0.248,-41.301 -0.136,-61.944c-0.13,-7.016 1.952,-9.656 9.19,-9.499c17.114,0.371 15.8,-1.21 15.786,16.11c-0.029,39.085 0,78.168 -0.016,117.253c-0.002,9.32 -0.312,9.629 -9.514,9.624c-17.03,-0.011 -15.286,1.573 -15.307,-15.501c-0.021,-18.678 -0.003,-37.36 -0.003,-56.043Z" style="fill:#fff;fill-rule:nonzero;"/></g></svg>